<svg width="400" height="200" viewBox="0 0 8000 4000" fill="none" xmlns="http://www.w3.org/2000/svg">
<rect width="8000" height="4000" fill="#E5E5E5"/>
<g id="layer1">
<g clip-path="url(#clip0)">
<rect width="8000" height="4000" fill="url(#paint0_linear)"/>
<path id="cloud" d="M7161.58 205.718C6969.91 70.9858 6770.1 277.035 6770.1 277.035C6770.1 277.035 6636.6 464.622 6709.78 542.237C6947.35 703.884 7365.56 712.848 7546.33 542.237C7715.95 676.167 7815.57 693.46 8003.02 599.814C8204.85 589.222 8271.98 493.603 8269.19 349.66C8266.41 205.718 8158.69 80.8709 7926.91 124.369C7785.69 -21.1237 7696.76 -36.0731 7519.65 64.3932C7309.11 -16.7551 7236.99 26.2891 7161.58 205.718Z" fill="url(#paint1_linear)"/>
<g id="Sun">
<circle id="outer" cx="5518" cy="1582" r="1500" fill="#FFFD64" fill-opacity="0.28"/>
<g id="inner" filter="url(#filter0_d)">
<circle cx="5518" cy="1582" r="1200" fill="url(#paint2_radial)"/>
</g>
</g>
<g id="mountain">
<path d="M755.5 1949.15C23.3553 1810.68 -148.53 2034.24 -341 2368.89V2671.39L8122.5 2593.89V1903.39C7833.36 1728.87 7300.09 1843.69 6758 2073.65C6146.58 1516.56 5738.69 1559.72 5112.5 1748.39C4171.04 1128.8 3498.35 790.55 2158 1530.15C1496.82 1418.61 1217.28 1510.17 755.5 1949.15Z" fill="url(#paint3_linear)" fill-opacity="0.8"/>
<path d="M755.5 1949.15C23.3553 1810.68 -148.53 2034.24 -341 2368.89V2671.39L8122.5 2593.89V1903.39C7833.36 1728.87 7300.09 1843.69 6758 2073.65C6146.58 1516.56 5738.69 1559.72 5112.5 1748.39C4171.04 1128.8 3498.35 790.55 2158 1530.15C1496.82 1418.61 1217.28 1510.17 755.5 1949.15Z" fill="url(#paint4_linear)"/>
</g>
<g id="midMountain">
<path id="Vector 1" d="M4526 2773.46C2341.88 1604.69 1109.55 1601.76 -1102 2727.96V3320H4526V2773.46Z" fill="url(#paint5_linear)"/>
<g id="Vector 2">
<path d="M9479 2941.92C5759.16 1453.62 3966.01 2017.2 1520 3488.46L9479 3488.46V2941.92Z" fill="url(#paint6_linear)"/>
<path d="M9479 2941.92C5759.16 1453.62 3966.01 2017.2 1520 3488.46L9479 3488.46V2941.92Z" fill="url(#paint7_linear)" fill-opacity="0.2"/>
</g>
</g>
<g id="FrontMountain">
<path id="Vector 1_2" d="M5509 3130.65C3331.87 2522.56 2103.48 2521.03 -101 3106.97V3415H5509V3130.65Z" fill="url(#paint8_linear)"/>
<g id="Vector 2_2">
<path d="M9479 2901.04C7467 2468.23 6372.14 2649.79 4361 3415L9479 3415V2901.04Z" fill="url(#paint9_linear)"/>
<path d="M9479 2901.04C7467 2468.23 6372.14 2649.79 4361 3415L9479 3415V2901.04Z" fill="url(#paint10_linear)"/>
</g>
</g>
<g id="tree">
<path id="backtree" d="M7592.02 2387.31C7241.32 2624.52 7037.41 2392.28 7190.67 1990.6C7330.17 1896.85 7772.17 1757.8 8424.24 1951.56C8654 2258.03 8587.45 2504.33 8189.99 2389.58C8017.37 2741.23 7714.85 2743.03 7592.02 2387.31Z" fill="#BD3405"/>
<g id="stem">
<path id="stembg" d="M8136.82 2192.53C8035.78 2520.45 8007.46 2717.23 8011.02 3092.78H7729.16C7762.28 2912.62 7777.79 2827.91 7729.16 2631.46C7680.52 2435.01 7614.38 2365.59 7511.93 2250.14L7576.77 2192.53C7627.78 2285.35 7612.65 2250.14 7664.31 2325.6C7688.09 2219.2 7688.09 2192.53 7664.31 2102.99L7729.16 2078.84C7729.16 2219.2 7742.99 2219.2 7729.16 2365.59C7761.8 2408.6 7763.74 2419.42 7801.57 2471.99C7859.64 2365.83 7906.06 2265.19 7909.21 2153.55C7935.12 2173.59 7961 2161.48 8011.02 2173.17C8073.17 2167.65 8091.76 2184.17 8136.82 2192.53Z" fill="#60302A"/>
<g id="shadow" style="mix-blend-mode:soft-light">
<path fill-rule="evenodd" clip-rule="evenodd" d="M8011.02 3092.78C8007.46 2717.23 8035.78 2520.45 8136.82 2192.53C8122.66 2189.91 8111.12 2186.47 8100.02 2183.17C8092.63 2180.97 8085.43 2178.83 8077.78 2177.03C8067.34 2204.52 8058.39 2224.17 8050.24 2242.09C8025.41 2296.62 8007.91 2335.07 7977.73 2529.59C7946.16 2733.04 7947.43 2775.09 7950.25 2868.54C7951.25 2901.6 7952.44 2941.09 7952.44 2996.44V3092.78H8011.02Z" fill="#230505" fill-opacity="0.72"/>
</g>
<path id="topshadow" fill-rule="evenodd" clip-rule="evenodd" d="M7728.52 2153.51C7728.11 2179.04 7727.57 2203.28 7727.07 2225.66C7725.49 2296.62 7724.33 2349.04 7729.16 2365.59C7736.94 2392.25 7756.14 2429.74 7801.57 2471.99C7805.38 2465.01 7809.15 2458.06 7812.86 2451.13C7774.2 2423.8 7755.08 2395.23 7743.21 2356.54C7737.17 2336.86 7737.38 2307.16 7737.62 2273.62C7737.9 2235.14 7738.21 2191.59 7729.16 2152.29L7728.52 2153.51Z" fill="#400500"/>
<path id="ring" d="M7925.93 2421.19C7921.43 2426.2 7914.04 2427.01 7911.46 2434.33C7908.6 2434.33 7910.29 2433.76 7908.11 2434.85C7907.78 2435.93 7908.05 2436.83 7907.44 2437.71C7906.83 2438.6 7904.83 2439.86 7903.88 2440.01C7900.75 2440.53 7900.75 2435.37 7900.75 2433.06V2433.04C7900.75 2431.42 7902.73 2429.22 7903.73 2428.34C7906.88 2425.55 7908.93 2421.96 7911.43 2418.5C7912.89 2416.49 7914.52 2414.68 7916.12 2412.82C7918.07 2410.55 7920.78 2408.57 7922.39 2406.05C7925.64 2400.93 7930.84 2397.74 7933.78 2392.18C7939.26 2381.82 7945.63 2372.73 7949.12 2361.12C7949.78 2358.94 7950.46 2356.84 7950.96 2354.61C7951.39 2352.65 7952.21 2350.89 7952.71 2348.95C7953.17 2347.22 7954.34 2345.8 7954.67 2344.08C7955.08 2341.95 7955.75 2340.12 7956.28 2338C7957.4 2333.5 7956.95 2328.52 7956.95 2323.9C7956.95 2315.62 7955.68 2309.25 7952.49 2298.87C7948.77 2290.38 7948.55 2286.86 7941.85 2282.84C7937.31 2280.3 7936.75 2281.33 7933.64 2281.33C7931.38 2281.33 7930.18 2281.83 7926.5 2282.33C7923.69 2282.33 7921.86 2281.49 7919.59 2282.38C7916.75 2283.48 7913.55 2284.66 7910.94 2286.61C7905.8 2290.45 7903.38 2292.86 7899.27 2297.93C7897.92 2299.59 7895.73 2302.92 7894.96 2304.72C7894.55 2305.65 7894.28 2307.03 7893.86 2307.99C7893.18 2309.57 7892.18 2309.44 7892.18 2311.26C7892.18 2312.18 7889.2 2321.93 7887.81 2321.07C7886.45 2320.23 7885.82 2319.1 7885.87 2318.05C7885.99 2315.39 7889.67 2307.65 7890.6 2305.21C7891.61 2302.54 7893.22 2298.35 7894.96 2296.27C7900.4 2289.76 7907.25 2285 7913.69 2279.95C7917.39 2277.05 7922.56 2274.47 7927.07 2274.47C7934.76 2274.47 7945.35 2274.86 7951.8 2280.3C7955.23 2283.19 7958.9 2286.03 7960.52 2290.74C7962.74 2297.2 7963.59 2303.82 7963.99 2310.75C7964.3 2316.2 7964.09 2321.72 7964.09 2327.18C7964.09 2335.1 7964.17 2343.35 7963.54 2351.23C7963.03 2357.74 7960.9 2366.64 7958.09 2372.34C7952.87 2382.94 7947.92 2393.35 7941.29 2402.9C7936.6 2409.66 7931.29 2415.21 7925.93 2421.19Z" fill="#45221E"/>
<path id="ring_2" d="M7888.61 2328.45C7888.68 2326.85 7888.71 2328.03 7888.71 2326.38C7886.49 2326.38 7890.5 2318.62 7890.5 2317.03C7890.5 2313 7887.42 2315.66 7886.04 2317.55C7885.32 2318.53 7885.28 2320.55 7885.09 2321.76C7884.74 2324.04 7884.15 2326.44 7883.61 2328.68C7881.81 2336.14 7879.24 2343.33 7876.45 2350.48C7874.5 2355.47 7873.83 2361.16 7873.57 2366.6C7873.33 2371.89 7872.71 2376.96 7872.66 2382.32C7872.59 2388.61 7871.11 2394.32 7872.21 2400.66C7873.17 2406.18 7876.86 2411.42 7880.68 2414.73C7883.88 2417.49 7886.51 2417.21 7890.4 2417.21C7891.57 2417.21 7893.04 2417.48 7894.16 2416.98C7894.92 2416.64 7895.48 2415.81 7896.29 2415.68C7897.83 2415.42 7898.42 2414.23 7899.69 2413.57C7903.27 2411.72 7904.98 2407.64 7907.89 2404.98C7910.79 2402.33 7912.88 2398.95 7915.03 2395.52C7919.37 2388.6 7923.39 2381.06 7928.65 2374.93C7933.55 2369.24 7936.45 2361.82 7939.26 2354.52C7942.55 2348.99 7941.3 2351.54 7942.03 2349.96C7942.64 2348.66 7943.7 2347.31 7944.12 2345.97C7945.52 2344.46 7948.17 2341.79 7949.27 2339.99C7950.78 2337.33 7950.85 2336.21 7951.79 2332.39C7951.79 2329.23 7952.05 2326.17 7952.05 2323C7952.05 2318.21 7951.08 2314.72 7949.27 2310.5C7948.53 2308.79 7948.77 2307.74 7946.39 2303.96C7944.87 2301.46 7944.01 2300.69 7941.42 2298.43C7938.7 2296.72 7935.53 2294.15 7932.77 2294.15C7930.52 2294.15 7926.06 2296.63 7923.91 2297.42C7922.13 2298.08 7919.26 2300.36 7917.64 2301.46C7915.82 2302.71 7914.61 2303.46 7912.88 2305.47C7911.8 2306.73 7911.37 2306.73 7910.72 2308.24C7909.24 2309.8 7908.58 2311.53 7906.95 2312.91C7904.19 2315.25 7901.82 2317.87 7899.42 2320.67C7897.25 2323.18 7894.76 2327.28 7893.62 2330.64C7891.93 2335.62 7892.47 2341.94 7890.22 2346.59C7887.51 2352.2 7889.26 2360.36 7892.48 2365.48C7896.94 2372.56 7907.03 2369.7 7911.46 2364.27C7916.09 2358.58 7921.92 2351.84 7926.42 2345.97C7930.06 2341.23 7937.41 2329.56 7936.66 2323C7936.41 2320.78 7932.87 2315.65 7931.18 2314.53C7930.14 2313.83 7924.78 2315.28 7923.26 2315.28C7922.48 2315.28 7919.68 2320.36 7919.04 2320.97C7917.57 2322.4 7915.48 2325.09 7915.26 2326.6C7915.05 2328.11 7915.91 2330.88 7917.42 2330.63C7918.07 2330.52 7918.5 2329.62 7919.37 2328.11C7920.23 2326.1 7922.46 2324.82 7923.95 2324.82C7927.79 2324.82 7923.62 2333.23 7922.11 2334.74C7920.42 2336.43 7919.25 2340.08 7918.05 2342.35C7917.01 2344.32 7915.75 2346.13 7914.58 2347.97C7912.19 2351.75 7910.25 2355.34 7906.9 2358.27C7904.37 2360.48 7903.57 2360.75 7900.31 2360.63C7897.93 2360.55 7895.85 2357.93 7895.85 2355.33C7895.85 2352.33 7896.29 2349.45 7896.29 2346.5V2343.25C7896.29 2339.86 7899.16 2336.25 7900.51 2333.44C7905.54 2322.91 7912.31 2315.05 7920.87 2308.44C7923.37 2306.52 7927.89 2301.59 7931.18 2301.46C7933.38 2301.38 7935.26 2301.5 7937.38 2302.33C7942.31 2304.27 7945.78 2310.93 7947.25 2317.03C7948.88 2323.77 7947.16 2330.72 7944.12 2336.07C7936.39 2349.63 7927.33 2362.79 7917.93 2374.85C7911.87 2382.61 7906.28 2390.86 7900.31 2398.72C7898.47 2401.14 7895.56 2407.18 7892.28 2407.34C7890.67 2407.43 7885.45 2405.53 7884.7 2404C7883.8 2402.18 7882.35 2400.76 7881.48 2398.81C7880.35 2396.3 7879.49 2394.24 7878.68 2391.51C7876.97 2385.83 7877.56 2379.6 7877.56 2373.67C7877.56 2369.04 7876.87 2362.94 7878.45 2358.56C7879.62 2355.32 7879.73 2351.87 7880.78 2348.58C7881.78 2345.46 7883.08 2342.53 7884.23 2339.41C7884.97 2337.4 7885.83 2335.49 7886.48 2333.41C7887.01 2331.72 7888 2330.14 7888.61 2328.45Z" fill="#45221E"/>
<g id="shades">
<path id="shade" fill-rule="evenodd" clip-rule="evenodd" d="M7941.21 2669.47C7940.62 2672.23 7939.99 2675.16 7939.62 2678.62C7939.01 2684.26 7938.57 2690 7938.13 2695.7C7938 2697.42 7937.87 2699.13 7937.74 2700.84C7936.48 2716.65 7936.5 2733.48 7937.28 2749.31C7937.5 2753.63 7937.74 2757.97 7937.99 2762.31C7938.37 2768.83 7938.74 2775.37 7939 2781.91C7939.39 2779.22 7940.28 2776.62 7941.16 2774.01C7941.89 2771.86 7942.63 2769.7 7943.09 2767.48C7943.46 2765.68 7945.14 2760.75 7944.84 2765.58C7944.73 2767.4 7944.36 2769.16 7944 2770.92C7943.56 2773.03 7943.12 2775.15 7943.12 2777.37V2789.67C7944.75 2796.78 7943.71 2801.68 7942.5 2807.31C7941.91 2810.07 7941.29 2813 7940.91 2816.46C7940.31 2822.11 7939.87 2827.84 7939.43 2833.54C7939.3 2835.26 7939.17 2836.97 7939.03 2838.68C7937.78 2854.49 7937.8 2871.32 7938.58 2887.15C7938.79 2891.47 7939.04 2895.81 7939.29 2900.15C7940.6 2923.03 7941.93 2946.11 7938.12 2968.63C7937.15 2974.38 7935.89 2979.78 7934.1 2985.25C7932.33 2990.67 7931.14 2996.27 7929.95 3001.88C7929.29 3004.99 7928.63 3008.1 7927.87 3011.18C7926.28 3017.63 7924.76 3024.78 7923.91 3031.4C7923.7 3033.02 7920.33 3031.94 7920.45 3030.4C7920.6 3028.55 7921.22 3026.78 7921.85 3025.01C7922.56 3023 7923.27 3021 7923.27 3018.88V3003.16C7923.27 3002.91 7923.27 3002.67 7923.27 3002.43C7923.29 3000.85 7923.31 2999.5 7922.42 2998.14C7921.79 2997.16 7921.92 2995.16 7922.03 2993.56C7922.07 2993.03 7922.1 2992.53 7922.1 2992.14C7922.1 2988.15 7923.37 2984.18 7924.61 2980.31C7925.13 2978.69 7925.65 2977.09 7926.06 2975.52C7928.07 2967.8 7927.76 2958.54 7927.47 2950.14C7927.43 2948.9 7927.39 2947.68 7927.35 2946.48C7927.23 2941.99 7926.64 2937.38 7926.06 2932.89C7925.95 2932.01 7925.84 2931.15 7925.73 2930.28C7925.31 2926.88 7925.23 2923.54 7925.15 2920.17C7925.11 2918.48 7925.07 2916.78 7924.99 2915.06C7924.6 2907.11 7924.3 2900.14 7925.47 2892.29C7927.06 2881.61 7928.46 2870.93 7929.48 2860.17C7929.2 2861.46 7928.93 2862.75 7928.65 2864.04C7927.99 2867.15 7927.34 2870.26 7926.58 2873.34C7925.9 2876.06 7924.82 2878.84 7923.74 2881.63C7923.16 2883.12 7922.58 2884.61 7922.05 2886.1C7922.1 2888.46 7922.12 2890.81 7921.94 2893.11C7921.82 2894.65 7920.04 2894.77 7920.25 2893.15C7920.55 2890.81 7921.23 2888.45 7922.05 2886.1C7922.05 2885.7 7922.04 2885.3 7922.03 2884.89C7922 2883.6 7921.97 2882.31 7921.97 2881.04V2865.32C7921.97 2865.07 7921.97 2864.83 7921.98 2864.59C7922 2863 7922.01 2861.66 7921.13 2860.29C7920.49 2859.32 7920.63 2857.32 7920.73 2855.72C7920.77 2855.19 7920.8 2854.69 7920.8 2854.3C7920.8 2850.31 7922.08 2846.34 7923.32 2842.47C7923.84 2840.85 7924.35 2839.25 7924.76 2837.68C7926.77 2829.96 7926.46 2820.7 7926.17 2812.3C7926.13 2811.06 7926.09 2809.83 7926.06 2808.64C7925.93 2804.15 7925.34 2799.54 7924.77 2795.04C7924.65 2794.17 7924.54 2793.3 7924.44 2792.44C7924.01 2789.04 7923.93 2785.7 7923.85 2782.33C7923.81 2780.64 7923.77 2778.94 7923.69 2777.22C7923.3 2769.27 7923.01 2762.3 7924.18 2754.45C7925.88 2743.03 7927.36 2731.59 7928.39 2720.07C7928.65 2717.27 7929.04 2714.51 7929.43 2711.76C7929.73 2709.62 7930.04 2707.48 7930.27 2705.32C7930.64 2701.99 7931.52 2698.83 7932.41 2695.67C7933.28 2692.56 7934.15 2689.44 7934.52 2686.17C7935.13 2680.9 7935.28 2675.53 7935.43 2670.16C7935.55 2665.49 7935.68 2660.81 7936.11 2656.19C7936.31 2654.1 7936.61 2652.04 7936.92 2649.97C7937.17 2648.26 7937.42 2646.55 7937.61 2644.83C7937.93 2641.86 7938.9 2639.02 7939.87 2636.17C7940.6 2634.02 7941.33 2631.86 7941.79 2629.64C7942.17 2627.84 7943.84 2622.91 7943.54 2627.74C7943.43 2629.55 7943.07 2631.31 7942.7 2633.08C7942.26 2635.19 7941.82 2637.31 7941.82 2639.53V2651.83C7943.46 2658.94 7942.41 2663.84 7941.21 2669.47Z" fill="#0E0605" fill-opacity="0.33"/>
<path id="shade_2" d="M7785.72 2869.28C7786.85 2858.75 7790.36 2853.08 7787.93 2842.5V2830.19C7787.93 2826.13 7789.4 2822.4 7789.64 2818.4C7789.94 2813.58 7788.27 2818.5 7787.89 2820.31C7786.82 2825.47 7784.28 2830.3 7783.71 2835.49C7783.29 2839.3 7782.57 2843.04 7782.22 2846.86C7781.28 2856.79 7781.77 2866.98 7780.63 2876.83C7779.86 2883.44 7777.11 2889.38 7776.38 2895.98C7775.83 2900.92 7774.94 2905.75 7774.49 2910.74C7773.46 2922.26 7771.98 2933.69 7770.28 2945.11C7769.11 2952.96 7769.4 2959.93 7769.79 2967.88C7770.04 2973.02 7769.9 2977.99 7770.54 2983.11C7771.2 2988.41 7772.01 2993.94 7772.16 2999.3C7772.42 3008.59 7773.17 3019.48 7770.86 3028.34C7769.47 3033.67 7766.9 3039.3 7766.9 3044.96C7766.9 3046.53 7766.38 3049.65 7767.23 3050.96C7768.24 3052.53 7768.07 3054.07 7768.07 3055.98V3071.71C7768.07 3075.48 7767.76 3079.37 7767.46 3083.14L7767.42 3083.72C7767.29 3085.26 7767.64 3085.09 7767.85 3083.47C7768.7 3076.85 7771.09 3070.46 7772.68 3064C7774.81 3055.35 7776.15 3046.48 7778.91 3038.07C7780.7 3032.6 7781.96 3027.21 7782.93 3021.45C7787.46 2994.66 7784.72 2967.07 7783.38 2939.97C7782.6 2924.15 7782.58 2907.31 7783.84 2891.51C7784.42 2884.13 7784.93 2876.63 7785.72 2869.28Z" fill="#0E0605" fill-opacity="0.33"/>
<path id="shade_3" d="M7843.21 2553.85C7844.35 2543.32 7847.85 2537.66 7845.42 2527.07V2514.77C7845.42 2510.71 7846.89 2506.98 7847.14 2502.98C7847.44 2498.15 7845.76 2503.08 7845.39 2504.88C7844.31 2510.04 7841.78 2514.87 7841.2 2520.06C7840.78 2523.87 7840.07 2527.61 7839.71 2531.43C7838.78 2541.36 7839.26 2551.55 7838.12 2561.41C7837.36 2568.01 7834.6 2573.95 7833.87 2580.56C7833.33 2585.5 7832.44 2590.33 7831.99 2595.31C7830.95 2606.83 7829.47 2618.27 7827.77 2629.69C7826.6 2637.54 7826.9 2644.51 7827.29 2652.46C7827.54 2657.59 7827.4 2662.57 7828.03 2667.68C7828.69 2672.98 7829.51 2678.51 7829.65 2683.88C7829.91 2693.17 7830.67 2704.06 7828.36 2712.92C7826.97 2718.25 7824.4 2723.88 7824.4 2729.54C7824.4 2731.11 7823.88 2734.23 7824.72 2735.53C7825.74 2737.1 7825.57 2738.64 7825.57 2740.56V2756.28C7825.57 2760.25 7825.85 2764.39 7825.53 2768.35C7825.41 2769.89 7827.73 2763.12 7827.94 2761.51C7828.79 2754.88 7828.58 2755.03 7830.17 2748.57C7832.31 2739.92 7833.65 2731.06 7836.4 2722.65C7838.19 2717.18 7839.45 2711.78 7840.42 2706.03C7844.95 2679.23 7842.22 2651.65 7840.88 2624.55C7840.1 2608.72 7840.08 2591.88 7841.33 2576.08C7841.92 2568.7 7842.42 2561.21 7843.21 2553.85Z" fill="#0E0605" fill-opacity="0.33"/>
<g id="shade_4" style="mix-blend-mode:soft-light" filter="url(#filter1_d)">
<path d="M7643.96 2381.22C7640.58 2371.36 7641.29 2364.43 7634.77 2356.53L7629.67 2345.76C7627.98 2342.2 7627.72 2338.11 7626.28 2334.46C7624.54 2330.07 7625.12 2335.32 7625.54 2337.12C7626.74 2342.24 7626.52 2347.89 7628.17 2352.76C7629.38 2356.33 7630.31 2360.01 7631.58 2363.56C7634.89 2372.77 7639.54 2381.43 7642.63 2390.7C7644.7 2396.91 7644.75 2403.66 7646.86 2409.86C7648.43 2414.49 7649.66 2419.22 7651.33 2423.83C7655.2 2434.5 7658.65 2445.35 7661.9 2456.3C7664.14 2463.83 7667.29 2469.77 7670.93 2476.52C7673.28 2480.87 7675.22 2485.31 7677.9 2489.43C7680.68 2493.7 7683.68 2498.08 7686.04 2502.7C7690.12 2510.69 7695.3 2519.8 7696.96 2528.85C7697.95 2534.31 7698.04 2540.68 7700.39 2545.63C7701.04 2547.01 7701.88 2550.03 7703.16 2550.7C7704.7 2551.5 7705.19 2552.95 7705.98 2554.62L7712.51 2568.4C7713.2 2569.85 7713.95 2571.31 7714.68 2572.78C7714.94 2575.3 7715.32 2577.75 7716.03 2579.96C7716.52 2581.5 7718.02 2580.4 7717.49 2578.98C7716.7 2576.87 7715.7 2574.81 7714.68 2572.78C7714.22 2568.17 7714.18 2563.29 7713.34 2559.06C7711.62 2550.28 7709.12 2541.77 7708.04 2532.85C7707.34 2527.06 7706.2 2521.63 7704.66 2516.04C7697.51 2490.03 7683.67 2467.42 7671.25 2444.44C7664 2431.02 7656.99 2416.28 7651.53 2401.74C7648.98 2394.95 7646.31 2388.1 7643.96 2381.22Z" fill="#0E0605" fill-opacity="0.33"/>
</g>
</g>
</g>
<path id="upperTree" d="M7782.69 1112.74C8057.64 908.49 8223.21 951 8316.09 1353.44C8528.63 1141.86 8647.29 1374.84 8647.29 1540.6C8769.85 1664.94 8830.35 1787.57 8647.29 1983.8C8713.44 2099.23 8696.79 2261.24 8534.68 2326.89C8402.18 2380.55 8245.08 2339.11 8185.79 2160.78C8029.4 1965.56 7976.56 2156.81 7811.76 2099.23C7646.95 2041.65 7588.66 1945.32 7456.9 2194.29C7355.37 2326.89 7292.47 2207.06 7176.61 2160.78C7050.81 2194.29 7020.98 2106.7 6991.15 2006.94C6851.95 1937.52 6802.54 1758.66 7037.41 1698.56C7099.8 1375.06 7067.24 1374.84 7355.37 1353.44C7355.37 1135.88 7474.68 946.975 7782.69 1112.74Z" fill="#FFA802"/>
<path id="leaf" d="M7726.66 1617.43C7776.99 1544.03 7868.38 1443.79 7771.38 1626.2L7625.4 1643.19C7539.71 1436.23 7635.79 1554.2 7667.28 1622.83C7673.8 1456.99 7688.49 1470.9 7726.66 1617.43Z" fill="#D40202" fill-opacity="0.49"/>
<path id="midtree" d="M8368.24 1624.86C8194.6 1737.58 8029.68 1790.48 7918.72 1523.74C7721.13 1659.9 7632.81 1647.5 7495.61 1608.92C7352.56 1737.8 7296.36 1728.74 7163.64 1678.44C7079.55 1800.03 7016.25 1863.88 6927.21 1864.23L6893.02 1861.45C6904.86 1863.35 6916.23 1864.27 6927.21 1864.23L8619.72 2001.66L8646.38 1970.7C8806.48 1879.22 8646.38 1790.87 8646.38 1790.87C8493.18 1835.65 8347.62 1820.31 8368.24 1624.86Z" fill="#FF8B02"/>
<path id="leaf_2" d="M7985.57 1882.77C8035.53 1809.03 8126.4 1708.16 8030.34 1891.24L7884.44 1909.23C7797.7 1702.86 7894.38 1820.17 7926.22 1888.58C7931.9 1722.71 7946.66 1736.51 7985.57 1882.77Z" fill="#9B0000" fill-opacity="0.49"/>
<path id="lowertre" d="M7811.74 2100.7C7900.05 2320.57 8134.76 2230.17 8185.77 2161.9C8245.06 2339.21 8402.16 2380.41 8534.65 2327.06C8696.76 2261.78 8713.41 2100.7 8647.27 1985.93C8483.05 1981.1 8429.17 1936.17 8321.75 1791.36C8209.95 1946.58 7946.31 1894.82 7878.86 1768.36C7682.34 1866.59 7578.88 1868.95 7416.09 1702.33C7416.09 1702.33 7259.49 1832.67 7037.4 1702.33C6802.54 1762.09 6851.95 1939.92 6991.15 2008.94C7020.98 2108.13 7050.8 2195.21 7176.6 2161.9C7292.46 2207.91 7355.36 2327.06 7456.89 2195.21C7500.62 2294.74 7751.36 2338.75 7811.74 2100.7Z" fill="#FF6C02"/>
<path id="shade_5" d="M7514.42 1109.48C7525.8 1106.11 7539.51 1110.17 7550.81 1111.23C7556.79 1111.23 7559.7 1117.38 7565.97 1115.67C7570.56 1114.41 7568.14 1105.31 7567.56 1101.28C7566.99 1097.27 7561.22 1094.83 7558.7 1093.13C7553.33 1089.52 7546.9 1084.25 7540.79 1082.66C7537.18 1081.72 7532.37 1083.23 7528.83 1083.79C7522.18 1084.84 7515.44 1087.02 7509.37 1090.39C7500.43 1095.36 7492.37 1102.13 7483.53 1107.21C7472.48 1113.56 7460.47 1118.61 7450.96 1128.1C7446.23 1132.82 7441.9 1138.32 7437.44 1143.31C7431.19 1150.31 7423.66 1156.01 7419.53 1165.07C7416.22 1172.35 7412.58 1181.13 7410.49 1189.11C7405.62 1207.76 7400.42 1226.92 7394.27 1245.12C7392.82 1249.42 7389.77 1252.95 7387.62 1256.77C7384.18 1262.91 7381.86 1269.92 7378.89 1276.37C7374.52 1285.9 7373.35 1294.33 7375.3 1305.05C7377.55 1317.33 7378.1 1331.74 7375.3 1343.94C7374.3 1348.3 7374.99 1352.79 7372.11 1356.31C7368.36 1360.91 7365.73 1362.81 7360.32 1362.81C7350.89 1362.81 7333.83 1358.33 7327.48 1369.41C7323.79 1375.86 7323.01 1386.01 7323.45 1393.65C7323.75 1398.91 7330.28 1404.06 7334 1406.03C7337.93 1408.12 7343.1 1407.54 7347.29 1407.32C7366.22 1406.32 7380.9 1397.37 7393.83 1382.1C7412.27 1360.33 7428.17 1333.3 7433.19 1302.68C7435.84 1286.44 7434.33 1269.46 7436.38 1253.16C7437.14 1247.09 7438.26 1241.06 7438.33 1234.91C7438.37 1230.35 7438.04 1225.69 7438.77 1221.19C7443.2 1193.91 7447.4 1164.89 7464.65 1144.19C7473.09 1134.06 7483.45 1126.33 7493.99 1119.48C7500.55 1115.22 7507.12 1111.64 7514.42 1109.48Z" fill="#FFCA66"/>
<path id="shade_6" d="M6894.77 1818.53C6897.86 1812.02 6912.67 1803.32 6915.63 1801.27C6920.2 1790.61 6979.89 1777.22 6976.56 1759.73C6976.23 1758.02 6965.6 1759.12 6963.72 1759.04C6955.22 1758.66 6965.67 1744.59 6967.84 1741.14C6970.59 1736.75 6979.53 1737.32 6983.76 1736.6C6989.76 1735.59 6995.17 1734.08 7001.36 1734.08H7011.7C7013.24 1734.08 7013.8 1733.83 7014.85 1732.44C7017.17 1729.36 7020.31 1728.09 7023.57 1726.71C7027.85 1724.88 7032.37 1722.55 7035.59 1727.27C7037.59 1730.22 7039.07 1731.12 7042.25 1732.06C7048.87 1734.03 7056.52 1736.55 7063.26 1737.42C7068.18 1738.06 7071.94 1742.4 7075.12 1746.56C7076.91 1748.89 7081.89 1751.81 7081.89 1755.07C7081.89 1758.47 7076.07 1756.6 7074.31 1755.89C7068.36 1753.49 7063.32 1747.69 7056.6 1747.69C7052.72 1747.69 7050.5 1750.89 7047.23 1751.1C7032.46 1752.05 7018.69 1749.28 7004.66 1756.14C6997.35 1759.71 6989.65 1761.82 6984.9 1769.82C6983.05 1772.92 6981.61 1776.27 6979.53 1779.21C6976.37 1783.69 6969.25 1787.44 6964.91 1790.8C6960.73 1794.05 6955.97 1795.88 6951.75 1798.87C6941.09 1806.43 6927.47 1806.64 6917.09 1815.19C6907.81 1822.85 6903.47 1829.55 6904.52 1842.99C6905.73 1858.48 6915.74 1869.67 6922.45 1882.44C6923.77 1884.95 6927.37 1887.46 6929.22 1889.12C6936.97 1896.12 6946 1901.34 6954.62 1906.71C6962.83 1911.82 6971.77 1915.53 6980.29 1919.88C6990.01 1924.84 6997.25 1940.85 7000.82 1951.71C7003.12 1958.7 7002.37 1965.81 7004.34 1972.82C7007.09 1982.61 7013.17 1991.24 7018.1 1999.67C7021.22 2005.02 7027.4 2008.5 7031.26 2013.28C7041.88 2026.47 7039.52 2039.63 7040.03 2056.27C7040.61 2075.05 7057.2 2078.34 7069.98 2084.88C7077.28 2088.61 7084.11 2093.14 7091.37 2097.04C7096.63 2099.87 7102.41 2104.88 7103.88 2111.85C7107.71 2129.93 7094.83 2141.25 7080.05 2136.06C7071.6 2133.08 7062.76 2127.59 7055.3 2122.19C7051.41 2119.37 7046.78 2116.84 7044.63 2111.85C7041.7 2105.02 7040.05 2098.11 7037.59 2091.18C7035.43 2085.1 7032.07 2079.74 7029.63 2073.85C7023.52 2059.07 7010.57 2047.45 7001.41 2035.15C6989.49 2019.14 6989.81 1997.76 6980.35 1980.7C6972.76 1967.01 6961.53 1944.91 6946.28 1942.69C6940.94 1941.92 6936.01 1937.74 6931.49 1934.69C6924.6 1930.05 6917.2 1925.74 6911.51 1919.12C6907.45 1914.39 6905.19 1907.41 6902.74 1901.48C6900.79 1896.76 6899.52 1890.57 6898.08 1885.53C6896.78 1881.01 6894.62 1877.14 6893.53 1872.48C6891.02 1861.76 6888.07 1850.69 6890.06 1839.33C6890.85 1834.88 6892.17 1830.41 6892.72 1825.97C6893.06 1823.17 6893.56 1821.09 6894.77 1818.53Z" fill="#FF8B02"/>
</g>
<path id="landup" d="M8253 2796C5126.91 3523.1 3262.6 3481.58 -253 2796V3772H8253V2796Z" fill="#FFCE73"/>
<g id="grass">
<g id="Grass">
<path id="Grass_2" d="M5404.27 3049.69L5407.64 3047.92C5408.16 3035.39 5403.95 3021.84 5396.64 3013C5388.24 3019.84 5381.56 3034.18 5385.37 3049.23C5381.51 3043.16 5368.4 3026.72 5360.76 3028.99C5357.19 3036.52 5360.46 3056.64 5366.74 3060.85L5377.6 3057.62L5404.27 3049.69Z" fill="#9B2000"/>
</g>
<g id="Grass_3">
<path id="Grass_4" d="M2461.29 2678L2465.61 2677.1C2470.33 2662.49 2470.13 2645.01 2464.94 2632C2453.35 2637.13 2441.2 2651.71 2440.45 2670.82C2438.18 2662.3 2429.05 2638.28 2419.82 2638.28C2413.37 2645.91 2410.34 2670.82 2415.92 2678H2429.05H2461.29Z" fill="#9B2000"/>
</g>
<g id="Grass_5">
<path id="Grass_6" d="M3185.01 3298.83L3197.22 3297.37C3212.22 3264.13 3213.82 3223.5 3200.89 3192.52C3167.79 3202.72 3131.98 3234.79 3127.56 3279.06C3122.24 3258.93 3099.64 3201.79 3073.77 3200.42C3054.79 3217.2 3043.25 3274.61 3058 3292.12L3094.76 3294.06L3185.01 3298.83Z" fill="#EE3900"/>
</g>
<g id="Grass_7">
<path id="Grass_8" d="M1005.09 3027.17L1009.48 3026.66C1015.5 3012.54 1016.88 2995.11 1012.89 2981.69C1000.87 2985.75 987.455 2999.18 984.99 3018.14C983.495 3009.45 976.576 2984.7 967.375 2983.87C960.266 2990.89 955.001 3015.42 959.912 3023.08L972.988 3024.26L1005.09 3027.17Z" fill="#9B2000"/>
</g>
<g id="Grass_9">
<path id="Grass_10" d="M2413.52 3488L2425.56 3484.66C2438.7 3430.68 2438.16 3366.07 2423.7 3318C2391.4 3336.96 2357.55 3390.85 2355.48 3461.46C2349.14 3429.97 2323.72 3341.2 2297.99 3341.2C2280.03 3369.41 2271.6 3461.46 2287.15 3488H2323.72H2413.52Z" fill="#F46700"/>
</g>
<g id="Grass_11">
<path id="Grass_12" d="M7749.72 3651.11L7774.84 3647.14C7809.84 3551.91 7818.46 3435.18 7796.16 3345.92C7727.27 3374.63 7649.95 3466.15 7635.07 3593.29C7626.87 3535.35 7588.29 3370.74 7535.68 3366.35C7494.72 3414.21 7463.6 3578.97 7491.39 3629.54L7566.16 3635.79L7749.72 3651.11Z" fill="#F34900"/>
</g>
<g id="Grass_13">
<path id="Grass_14" d="M4712.29 3511L4716.61 3510.1C4721.33 3495.49 4721.13 3478.01 4715.94 3465C4704.35 3470.13 4692.2 3484.71 4691.45 3503.82C4689.18 3495.3 4680.05 3471.28 4670.82 3471.28C4664.37 3478.91 4661.34 3503.82 4666.92 3511H4680.05H4712.29Z" fill="#9B2000"/>
</g>
<g id="Grass_15">
<path id="Grass_16" d="M3460.81 2500.89L3464.59 2498.59C3464.15 2483.25 3458.11 2466.84 3448.87 2456.32C3439.66 2465.03 3433.08 2482.84 3438.78 2501.09C3433.78 2493.82 3417.15 2474.24 3408.44 2477.33C3404.92 2486.68 3410.4 2511.16 3418.06 2516.06L3430.43 2511.67L3460.81 2500.89Z" fill="#9B2000"/>
</g>
<path id="grass_2" d="M148.251 3420.04C111.12 3040.5 19.3398 2850.89 79.697 3431.61L303.13 3456.2C391.995 2806.68 249.079 3043.55 239.148 3427.98C204.632 2856.96 180.757 2886.78 148.251 3420.04Z" fill="#8B0B0B"/>
</g>
<g id="tree_2">
<path id="leaf_3" d="M1269.3 997.384C1209.63 885.008 1093.95 725.441 1199.85 997.202L1416.44 1059.27C1591.76 803.476 1420.53 936.599 1357.74 1020.6C1384.74 795.459 1359.47 810.249 1269.3 997.384Z" fill="#FFA802"/>
<path id="leaf_4" d="M1907.84 1450.5C1959.23 1333.8 2013.78 1142.27 1866.62 1392.45L1947.59 1610.1C2249.87 1604.03 2044.92 1540.46 1942.54 1538.11C2132.78 1426.55 2106.3 1414.28 1907.84 1450.5Z" fill="#FFA802"/>
<path id="backtree_2" d="M1179.35 2706.57C1716.46 3030.77 2028.74 2713.37 1794.02 2164.4C1580.38 2036.28 903.449 1846.24 -95.1909 2111.05C-447.069 2529.9 -345.145 2866.51 263.565 2709.68C527.926 3190.28 991.245 3192.73 1179.35 2706.57Z" fill="#BD3405"/>
<g id="stem_2">
<path id="stembg_2" d="M345 2440.38C499.741 2888.53 543.111 3157.47 537.661 3670.73H969.328C918.6 3424.51 894.846 3308.74 969.328 3040.26C1043.81 2771.78 1145.11 2676.9 1302.02 2519.11L1202.71 2440.38C1124.58 2567.23 1147.76 2519.11 1068.64 2622.24C1032.22 2476.82 1032.22 2440.38 1068.64 2318L969.328 2285C969.328 2476.82 948.142 2476.82 969.328 2676.9C919.342 2735.68 916.363 2750.46 858.432 2822.31C769.498 2677.23 698.406 2539.68 693.578 2387.1C653.891 2414.49 614.267 2397.94 537.661 2413.91C442.468 2406.37 413.998 2428.95 345 2440.38Z" fill="#60302A"/>
<g id="shadow_2" style="mix-blend-mode:soft-light">
<path fill-rule="evenodd" clip-rule="evenodd" d="M537.661 3670.73C543.111 3157.47 499.741 2888.53 345 2440.38C366.672 2436.79 384.346 2432.1 401.345 2427.59C412.672 2424.58 423.699 2421.66 435.41 2419.19C451.407 2456.76 465.108 2483.62 477.598 2508.11C515.616 2582.64 542.423 2635.19 588.641 2901.03C636.982 3179.09 635.039 3236.56 630.723 3364.27C629.196 3409.45 627.371 3463.42 627.371 3539.07V3670.73H537.661Z" fill="#230505" fill-opacity="0.72"/>
</g>
<path id="topshadow_2" fill-rule="evenodd" clip-rule="evenodd" d="M970.31 2387.05C970.93 2421.95 971.756 2455.06 972.52 2485.66C974.939 2582.63 976.727 2654.27 969.328 2676.9C957.411 2713.33 928.007 2764.57 858.432 2822.31C852.588 2812.78 846.821 2803.27 841.144 2793.8C900.338 2756.45 929.625 2717.4 947.81 2664.52C957.06 2637.62 956.734 2597.04 956.366 2551.2C955.943 2498.61 955.465 2439.09 969.329 2385.38L970.31 2387.05Z" fill="#400500"/>
<path id="ring_3" d="M667.973 2752.88C674.859 2759.72 686.186 2760.84 690.134 2770.85C694.518 2770.85 691.923 2770.06 695.257 2771.56C695.765 2773.03 695.353 2774.25 696.282 2775.46C697.225 2776.68 700.284 2778.39 701.746 2778.61C706.528 2779.32 706.528 2772.27 706.528 2769.11V2769.07C706.528 2766.87 703.507 2763.86 701.974 2762.65C697.141 2758.83 694.004 2753.94 690.172 2749.21C687.944 2746.46 685.449 2743.99 683 2741.45C680.014 2738.35 675.853 2735.63 673.399 2732.19C668.422 2725.19 660.448 2720.83 655.943 2713.23C647.557 2699.08 637.799 2686.65 632.453 2670.79C631.446 2667.8 630.408 2664.94 629.645 2661.88C628.977 2659.21 627.72 2656.8 626.951 2654.16C626.261 2651.79 624.454 2649.84 623.953 2647.5C623.33 2644.59 622.298 2642.09 621.486 2639.18C619.769 2633.04 620.462 2626.24 620.462 2619.91C620.462 2608.6 622.406 2599.89 627.292 2585.71C632.999 2574.11 633.33 2569.3 643.592 2563.8C650.543 2560.33 651.408 2561.73 656.171 2561.73C659.631 2561.73 661.468 2562.42 667.095 2563.11C671.399 2563.11 674.212 2561.96 677.687 2563.17C682.035 2564.67 686.935 2566.29 690.93 2568.95C698.796 2574.2 702.506 2577.5 708.805 2584.42C710.867 2586.69 714.223 2591.24 715.408 2593.7C716.023 2594.98 716.448 2596.86 717.081 2598.17C718.123 2600.34 719.658 2600.16 719.658 2602.64C719.658 2603.9 724.217 2617.22 726.35 2616.05C728.436 2614.9 729.402 2613.36 729.329 2611.92C729.145 2608.29 723.506 2597.71 722.086 2594.38C720.528 2590.72 718.064 2585 715.408 2582.16C707.071 2573.26 696.578 2566.75 686.719 2559.86C681.046 2555.89 673.135 2552.37 666.227 2552.37C654.442 2552.37 638.231 2552.89 628.355 2560.33C623.099 2564.29 617.475 2568.16 614.997 2574.6C611.598 2583.42 610.288 2592.47 609.685 2601.94C609.21 2609.39 609.533 2616.94 609.533 2624.41C609.533 2635.23 609.409 2646.51 610.368 2657.27C611.159 2666.16 614.422 2678.34 618.716 2686.12C626.71 2700.61 634.29 2714.84 644.445 2727.89C651.627 2737.12 659.762 2744.71 667.973 2752.88Z" fill="#45221E"/>
<path id="ring_4" d="M725.123 2626.14C725.026 2623.95 724.971 2625.56 724.971 2623.3C728.374 2623.3 722.239 2612.7 722.239 2610.53C722.239 2605.02 726.949 2608.65 729.069 2611.24C730.159 2612.58 730.22 2615.33 730.511 2617C731.057 2620.11 731.961 2623.39 732.788 2626.46C735.534 2636.64 739.478 2646.48 743.755 2656.25C746.738 2663.06 747.77 2670.83 748.157 2678.28C748.533 2685.51 749.476 2692.44 749.561 2699.75C749.661 2708.35 751.932 2716.16 750.244 2724.82C748.773 2732.37 743.122 2739.53 737.266 2744.05C732.379 2747.82 728.344 2747.44 722.39 2747.44C720.59 2747.44 718.339 2747.81 716.622 2747.12C715.47 2746.66 714.606 2745.53 713.359 2745.35C711.01 2745 710.105 2743.37 708.16 2742.47C702.675 2739.94 700.06 2734.37 695.599 2730.73C691.157 2727.1 687.965 2722.48 684.67 2717.8C678.015 2708.35 671.854 2698.03 663.799 2689.67C656.306 2681.89 651.868 2671.74 647.564 2661.77C642.515 2654.21 644.436 2657.7 643.307 2655.54C642.377 2653.76 640.762 2651.92 640.119 2650.08C637.964 2648.02 633.918 2644.36 632.226 2641.9C629.916 2638.28 629.806 2636.75 628.364 2631.52C628.364 2627.2 627.976 2623.01 627.976 2618.69C627.976 2612.14 629.452 2607.37 632.226 2601.61C633.352 2599.27 632.999 2597.83 636.64 2592.67C638.957 2589.25 640.282 2588.2 644.254 2585.11C648.421 2582.77 653.271 2579.27 657.495 2579.27C660.948 2579.27 667.765 2582.64 671.068 2583.73C673.788 2584.63 678.191 2587.74 680.668 2589.25C683.452 2590.96 685.302 2591.98 687.95 2594.73C689.606 2596.45 690.268 2596.45 691.261 2598.52C693.539 2600.65 694.543 2603.01 697.041 2604.9C701.267 2608.09 704.894 2611.68 708.577 2615.5C711.89 2618.94 715.707 2624.54 717.457 2629.14C720.044 2635.93 719.214 2644.57 722.656 2650.93C726.808 2658.59 724.139 2669.75 719.203 2676.74C712.369 2686.42 696.914 2682.52 690.135 2675.08C683.04 2667.31 674.116 2658.11 667.214 2650.08C661.641 2643.6 650.387 2627.65 651.537 2618.69C651.927 2615.65 657.341 2608.65 659.928 2607.11C661.527 2606.16 669.734 2608.14 672.061 2608.14C673.255 2608.14 677.549 2615.08 678.522 2615.92C680.776 2617.87 683.978 2621.55 684.309 2623.61C684.64 2625.67 683.316 2629.46 680.999 2629.11C680.006 2628.96 679.343 2627.74 678.019 2625.67C676.695 2622.92 673.284 2621.18 671.009 2621.18C665.124 2621.18 671.502 2632.67 673.817 2634.73C676.416 2637.05 678.207 2642.03 680.04 2645.14C681.627 2647.82 683.569 2650.3 685.353 2652.82C689.015 2657.98 691.985 2662.89 697.117 2666.89C700.994 2669.91 702.213 2670.28 707.211 2670.12C710.86 2670 714.042 2666.43 714.042 2662.87C714.042 2658.77 713.359 2654.83 713.359 2650.81V2646.36C713.359 2641.73 708.962 2636.8 706.908 2632.96C699.205 2618.56 688.831 2607.82 675.714 2598.79C671.899 2596.16 664.965 2589.43 659.928 2589.25C656.558 2589.14 653.678 2589.3 650.441 2590.44C642.885 2593.09 637.575 2602.19 635.316 2610.53C632.823 2619.74 635.452 2629.23 640.119 2636.54C651.954 2655.09 665.832 2673.06 680.23 2689.55C689.501 2700.16 698.059 2711.43 707.211 2722.18C710.026 2725.48 714.483 2733.73 719.506 2733.96C721.97 2734.07 729.971 2731.47 731.118 2729.39C732.487 2726.9 734.719 2724.96 736.052 2722.3C737.77 2718.86 739.09 2716.05 740.34 2712.33C742.947 2704.56 742.047 2696.04 742.047 2687.93C742.047 2681.61 743.111 2673.28 740.681 2667.28C738.89 2662.86 738.719 2658.15 737.114 2653.65C735.592 2649.38 733.597 2645.37 731.839 2641.12C730.705 2638.37 729.38 2635.76 728.386 2632.92C727.574 2630.6 726.057 2628.45 725.123 2626.14Z" fill="#45221E"/>
<g id="shades_2">
<path id="shade_7" fill-rule="evenodd" clip-rule="evenodd" d="M644.577 3092.21C645.48 3095.97 646.44 3099.98 647.009 3104.7C647.94 3112.42 648.612 3120.26 649.28 3128.05C649.482 3130.4 649.683 3132.74 649.891 3135.08C651.811 3156.68 651.782 3179.69 650.586 3201.32C650.26 3207.23 649.879 3213.15 649.497 3219.09C648.923 3228 648.348 3236.94 647.955 3245.87C647.351 3242.2 645.999 3238.64 644.642 3235.08C643.523 3232.14 642.402 3229.19 641.694 3226.16C641.118 3223.69 638.556 3216.96 639.012 3223.55C639.183 3226.04 639.742 3228.44 640.301 3230.85C640.973 3233.74 641.645 3236.64 641.645 3239.67V3256.48C639.141 3266.2 640.744 3272.89 642.591 3280.59C643.493 3284.36 644.454 3288.36 645.023 3293.09C645.953 3300.81 646.626 3308.64 647.294 3316.43C647.496 3318.78 647.697 3321.13 647.905 3323.47C649.825 3345.06 649.796 3368.07 648.6 3389.7C648.274 3395.61 647.892 3401.54 647.511 3407.47C645.499 3438.74 643.47 3470.28 649.296 3501.06C650.785 3508.92 652.713 3516.3 655.456 3523.77C658.173 3531.18 659.993 3538.84 661.816 3546.51C662.824 3550.75 663.833 3555 664.995 3559.21C667.432 3568.03 669.768 3577.8 671.068 3586.85C671.385 3589.06 676.551 3587.58 676.364 3585.47C676.139 3582.95 675.181 3580.53 674.224 3578.11C673.136 3575.37 672.05 3572.63 672.05 3569.74V3548.25C672.05 3547.91 672.046 3547.58 672.041 3547.25C672.012 3545.09 671.987 3543.25 673.342 3541.38C674.313 3540.05 674.108 3537.32 673.944 3535.13C673.889 3534.4 673.839 3533.73 673.839 3533.19C673.839 3527.74 671.886 3522.31 669.987 3517.02C669.192 3514.81 668.407 3512.62 667.777 3510.47C664.693 3499.93 665.174 3487.27 665.611 3475.8C665.675 3474.1 665.739 3472.42 665.79 3470.78C665.981 3464.65 666.886 3458.35 667.768 3452.21C667.94 3451.02 668.11 3449.83 668.274 3448.65C668.922 3444 669.043 3439.44 669.165 3434.83C669.226 3432.52 669.288 3430.2 669.417 3427.85C670.014 3416.98 670.461 3407.46 668.672 3396.73C666.239 3382.14 664.1 3367.53 662.533 3352.83C662.963 3354.59 663.382 3356.36 663.802 3358.12C664.81 3362.36 665.819 3366.61 666.981 3370.82C668.01 3374.55 669.666 3378.34 671.333 3382.16C672.218 3384.19 673.108 3386.23 673.908 3388.27C673.835 3391.49 673.807 3394.71 674.086 3397.85C674.273 3399.95 676.987 3400.11 676.669 3397.9C676.21 3394.7 675.169 3391.49 673.908 3388.27C673.92 3387.72 673.934 3387.17 673.948 3386.62C673.992 3384.85 674.036 3383.09 674.036 3381.36V3359.86C674.036 3359.52 674.032 3359.19 674.027 3358.87C673.998 3356.7 673.973 3354.86 675.328 3353C676.299 3351.66 676.095 3348.94 675.93 3346.75C675.875 3346.02 675.825 3345.34 675.825 3344.81C675.825 3339.35 673.872 3333.92 671.973 3328.64C671.178 3326.43 670.393 3324.24 669.764 3322.09C666.679 3311.54 667.16 3298.89 667.597 3287.41C667.662 3285.71 667.725 3284.04 667.776 3282.4C667.967 3276.26 668.872 3269.96 669.754 3263.82C669.926 3262.63 670.096 3261.44 670.26 3260.27C670.908 3255.62 671.029 3251.05 671.151 3246.45C671.213 3244.13 671.274 3241.81 671.403 3239.46C672 3228.59 672.447 3219.07 670.658 3208.34C668.055 3192.73 665.788 3177.1 664.199 3161.36C663.812 3157.53 663.213 3153.76 662.613 3150C662.148 3147.07 661.683 3144.15 661.318 3141.2C660.755 3136.65 659.403 3132.33 658.052 3128.01C656.721 3123.76 655.39 3119.5 654.809 3115.02C653.875 3107.82 653.652 3100.49 653.428 3093.15C653.233 3086.76 653.038 3080.37 652.375 3074.06C652.075 3071.2 651.611 3068.38 651.148 3065.55C650.764 3063.22 650.381 3060.88 650.09 3058.52C649.589 3054.48 648.111 3050.59 646.628 3046.69C645.51 3043.75 644.388 3040.8 643.681 3037.77C643.104 3035.3 640.542 3028.57 640.998 3035.17C641.17 3037.65 641.728 3040.06 642.287 3042.46C642.959 3045.36 643.631 3048.25 643.631 3051.29V3068.1C641.128 3077.82 642.73 3084.5 644.577 3092.21Z" fill="#0E0605" fill-opacity="0.33"/>
<path id="shade_8" d="M882.705 3365.28C880.97 3350.88 875.6 3343.14 879.326 3328.67V3311.86C879.326 3306.31 877.072 3301.21 876.693 3295.74C876.237 3289.15 878.8 3295.88 879.376 3298.35C881.022 3305.4 884.908 3312 885.785 3319.1C886.428 3324.3 887.522 3329.41 888.07 3334.63C889.496 3348.2 888.758 3362.13 890.505 3375.6C891.676 3384.63 895.896 3392.75 897.013 3401.77C897.849 3408.53 899.207 3415.13 899.895 3421.94C901.484 3437.68 903.75 3453.31 906.353 3468.92C908.143 3479.65 907.696 3489.17 907.099 3500.04C906.713 3507.06 906.93 3513.86 905.956 3520.84C904.946 3528.09 903.7 3535.65 903.472 3542.98C903.077 3555.67 901.918 3570.56 905.459 3582.66C907.591 3589.95 911.52 3597.65 911.52 3605.38C911.52 3607.53 912.321 3611.79 911.024 3613.58C909.466 3615.72 909.732 3617.83 909.732 3620.44V3641.93C909.732 3647.1 910.205 3652.4 910.665 3657.56L910.736 3658.35C910.923 3660.46 910.391 3660.22 910.074 3658.01C908.773 3648.96 905.114 3640.22 902.677 3631.4C899.413 3619.57 897.358 3607.46 893.138 3595.97C890.395 3588.49 888.467 3581.12 886.977 3573.25C880.046 3536.63 884.234 3498.93 886.282 3461.89C887.478 3440.26 887.507 3417.25 885.586 3395.66C884.689 3385.57 883.916 3375.33 882.705 3365.28Z" fill="#0E0605" fill-opacity="0.33"/>
<path id="shade_9" d="M794.65 2934.19C792.916 2919.8 787.546 2912.05 791.272 2897.59V2880.78C791.272 2875.22 789.017 2870.13 788.639 2864.66C788.182 2858.06 790.745 2864.79 791.321 2867.26C792.967 2874.31 796.853 2880.92 797.73 2888.01C798.374 2893.22 799.467 2898.33 800.016 2903.55C801.441 2917.12 800.703 2931.04 802.45 2944.51C803.621 2953.54 807.841 2961.66 808.958 2970.69C809.794 2977.44 811.152 2984.04 811.84 2990.85C813.429 3006.59 815.696 3022.22 818.299 3037.83C820.088 3048.56 819.641 3058.08 819.044 3068.96C818.659 3075.97 818.875 3082.77 817.901 3089.76C816.892 3097 815.645 3104.56 815.417 3111.89C815.022 3124.59 813.863 3139.47 817.404 3151.58C819.536 3158.87 823.466 3166.56 823.466 3174.3C823.466 3176.44 824.266 3180.7 822.969 3182.49C821.412 3184.63 821.677 3186.74 821.677 3189.35V3210.85C821.677 3216.28 821.246 3221.93 821.727 3227.34C821.914 3229.45 818.364 3220.2 818.046 3217.99C816.746 3208.94 817.059 3209.14 814.622 3200.31C811.358 3188.49 809.303 3176.38 805.083 3164.88C802.34 3157.41 800.412 3150.03 798.923 3142.16C791.991 3105.55 796.179 3067.84 798.227 3030.81C799.423 3009.18 799.452 2986.17 797.532 2964.57C796.634 2954.48 795.861 2944.24 794.65 2934.19Z" fill="#0E0605" fill-opacity="0.33"/>
<g id="shade_10" style="mix-blend-mode:soft-light" filter="url(#filter2_d)">
<path d="M1099.82 2698.26C1104.99 2684.78 1103.89 2675.31 1113.88 2664.51L1121.7 2649.79C1124.28 2644.93 1124.68 2639.33 1126.89 2634.35C1129.56 2628.35 1128.67 2635.53 1128.03 2637.98C1126.19 2644.98 1126.52 2652.71 1123.99 2659.36C1122.13 2664.25 1120.71 2669.27 1118.76 2674.11C1113.7 2686.71 1106.58 2698.54 1101.85 2711.21C1098.67 2719.7 1098.59 2728.93 1095.37 2737.39C1092.96 2743.72 1091.08 2750.18 1088.52 2756.49C1082.59 2771.07 1077.31 2785.9 1072.33 2800.87C1068.9 2811.16 1064.08 2819.28 1058.5 2828.5C1054.91 2834.45 1051.93 2840.51 1047.83 2846.14C1043.58 2851.98 1038.97 2857.97 1035.36 2864.27C1029.11 2875.19 1021.17 2887.65 1018.65 2900.03C1017.12 2907.48 1016.98 2916.18 1013.39 2922.96C1012.39 2924.84 1011.11 2928.97 1009.14 2929.88C1006.78 2930.98 1006.03 2932.96 1004.82 2935.24L994.824 2954.07C993.766 2956.06 992.622 2958.05 991.496 2960.06C991.106 2963.5 990.52 2966.84 989.435 2969.88C988.685 2971.97 986.383 2970.47 987.198 2968.53C988.413 2965.64 989.937 2962.84 991.496 2960.06C992.21 2953.75 992.271 2947.09 993.545 2941.3C996.185 2929.31 1000.02 2917.68 1001.67 2905.49C1002.74 2897.57 1004.49 2890.15 1006.84 2882.51C1017.8 2846.97 1039 2816.06 1058.02 2784.65C1069.12 2766.31 1079.85 2746.18 1088.21 2726.3C1092.12 2717.02 1096.2 2707.66 1099.82 2698.26Z" fill="#0E0605" fill-opacity="0.33"/>
</g>
</g>
</g>
<path id="upperTree_2" d="M887.337 964.642C466.263 685.502 212.692 743.599 70.4412 1293.61C-255.063 1004.44 -436.795 1322.85 -436.795 1549.39C-624.491 1719.33 -717.146 1886.93 -436.796 2155.11C-538.092 2312.86 -512.602 2534.29 -264.327 2624.01C-61.4039 2697.34 179.187 2640.71 269.997 2396.99C509.502 2130.19 590.425 2391.55 842.825 2312.86C1095.23 2234.18 1184.5 2102.52 1386.29 2442.78C1541.79 2624.01 1638.12 2460.24 1815.55 2396.99C2008.22 2442.78 2053.9 2323.08 2099.58 2186.74C2312.77 2091.86 2388.43 1847.42 2028.74 1765.28C1933.18 1323.16 1983.06 1322.85 1541.79 1293.61C1541.79 996.268 1359.06 738.099 887.337 964.642Z" fill="#FFA802"/>
<path id="leaf_5" d="M973.147 1654.39C896.068 1554.09 756.113 1417.08 904.66 1666.39L1128.23 1689.6C1259.47 1406.75 1112.32 1567.98 1064.09 1661.78C1054.11 1435.13 1031.61 1454.14 973.147 1654.39Z" fill="#D40202" fill-opacity="0.49"/>
<path id="midtree_2" d="M-9.4317 1664.55C256.51 1818.6 509.072 1890.9 679.02 1526.36C981.622 1712.44 1116.89 1695.5 1327 1642.76C1546.09 1818.9 1632.16 1806.53 1835.42 1737.78C1964.2 1903.96 2061.15 1991.22 2197.52 1991.69L2249.87 1987.9C2231.73 1990.49 2214.32 1991.75 2197.52 1991.69L-394.568 2179.52L-435.391 2137.21C-680.589 2012.18 -435.391 1891.44 -435.391 1891.44C-200.769 1952.63 22.1555 1931.67 -9.4317 1664.55Z" fill="#FF8B02"/>
<path id="leaf_6" d="M576.629 2017.04C500.12 1916.26 360.945 1778.4 508.074 2028.61L731.508 2053.19C864.35 1771.15 716.291 1931.47 667.526 2024.98C658.831 1798.28 636.227 1817.14 576.629 2017.04Z" fill="#9B0000" fill-opacity="0.49"/>
<path id="lowertre_2" d="M842.85 2314.87C707.613 2615.36 348.154 2491.82 270.028 2398.51C179.219 2640.84 -61.3686 2697.14 -264.289 2624.23C-512.561 2535.02 -538.05 2314.87 -436.756 2158.03C-185.251 2151.42 -102.747 2090.01 61.7744 1892.11C232.992 2104.24 636.761 2033.5 740.053 1860.67C1041.03 1994.92 1199.48 1998.14 1448.79 1770.43C1448.79 1770.43 1688.63 1948.56 2028.75 1770.43C2388.44 1852.1 2312.77 2095.14 2099.59 2189.47C2053.91 2325.03 2008.22 2444.04 1815.57 2398.51C1638.13 2461.4 1541.8 2624.23 1386.31 2444.04C1319.34 2580.07 935.321 2640.21 842.85 2314.87Z" fill="#FF6C02"/>
<path id="shade_11" d="M1298.19 960.187C1280.77 955.581 1259.77 961.132 1242.47 962.584C1233.31 962.584 1228.85 970.99 1219.25 968.646C1212.22 966.927 1215.93 954.495 1216.81 948.98C1217.69 943.506 1226.52 940.164 1230.39 937.843C1238.61 932.907 1248.45 925.711 1257.81 923.534C1263.34 922.248 1270.71 924.319 1276.13 925.085C1286.31 926.522 1296.63 929.499 1305.93 934.107C1319.62 940.891 1331.97 950.142 1345.5 957.086C1362.43 965.772 1380.82 972.664 1395.39 985.633C1402.64 992.083 1409.26 999.602 1416.09 1006.43C1425.67 1015.99 1437.2 1023.78 1443.51 1036.17C1448.59 1046.12 1454.17 1058.12 1457.36 1069.02C1464.83 1094.51 1472.79 1120.7 1482.2 1145.57C1484.43 1151.45 1489.1 1156.28 1492.38 1161.5C1497.67 1169.88 1501.22 1179.46 1505.76 1188.28C1512.46 1201.31 1514.25 1212.83 1511.25 1227.47C1507.82 1244.26 1506.97 1263.95 1511.25 1280.62C1512.79 1286.59 1511.74 1292.72 1516.14 1297.53C1521.88 1303.81 1525.92 1306.42 1534.2 1306.42C1548.64 1306.42 1574.77 1300.29 1584.49 1315.44C1590.15 1324.25 1591.34 1338.12 1590.67 1348.57C1590.21 1355.74 1580.2 1362.79 1574.51 1365.48C1568.49 1368.34 1560.58 1367.55 1554.15 1367.25C1525.16 1365.88 1502.69 1353.65 1482.88 1332.78C1454.64 1303.02 1430.29 1266.08 1422.61 1224.23C1418.54 1202.04 1420.85 1178.84 1417.72 1156.56C1416.56 1148.26 1414.84 1140.02 1414.74 1131.61C1414.66 1125.38 1415.18 1119.02 1414.06 1112.86C1407.26 1075.58 1400.84 1035.92 1374.42 1007.62C1361.5 993.789 1345.63 983.215 1329.48 973.862C1319.43 968.037 1309.38 963.144 1298.19 960.187Z" fill="#FFCA66"/>
<path id="shade_12" d="M2247.18 1929.24C2242.45 1920.34 2219.78 1908.45 2215.25 1905.64C2208.24 1891.08 2116.82 1872.78 2121.94 1848.88C2122.44 1846.53 2138.72 1848.05 2141.6 1847.93C2154.61 1847.41 2138.61 1828.19 2135.29 1823.47C2131.07 1817.48 2117.38 1818.24 2110.91 1817.27C2101.72 1815.88 2093.42 1813.82 2083.95 1813.82H2068.11C2065.76 1813.82 2064.9 1813.48 2063.3 1811.58C2059.73 1807.37 2054.92 1805.63 2049.94 1803.74C2043.37 1801.25 2036.45 1798.06 2031.53 1804.52C2028.46 1808.55 2026.19 1809.78 2021.33 1811.07C2011.18 1813.75 1999.47 1817.2 1989.14 1818.39C1981.61 1819.26 1975.85 1825.19 1970.98 1830.88C1968.25 1834.07 1960.61 1838.05 1960.61 1842.51C1960.61 1847.15 1969.52 1844.6 1972.22 1843.63C1981.34 1840.35 1989.06 1832.43 1999.35 1832.43C2005.29 1832.43 2008.69 1836.79 2013.69 1837.08C2036.31 1838.38 2057.41 1834.6 2078.89 1843.97C2090.09 1848.86 2101.88 1851.73 2109.16 1862.66C2111.99 1866.91 2114.2 1871.48 2117.38 1875.5C2122.22 1881.62 2133.13 1886.75 2139.77 1891.34C2146.18 1895.78 2153.47 1898.29 2159.93 1902.37C2176.26 1912.69 2197.11 1912.98 2213.01 1924.68C2227.23 1935.14 2233.86 1944.3 2232.25 1962.66C2230.4 1983.83 2215.07 1999.13 2204.8 2016.59C2202.78 2020.02 2197.26 2023.44 2194.43 2025.72C2182.57 2035.27 2168.73 2042.42 2155.53 2049.75C2142.95 2056.73 2129.26 2061.8 2116.21 2067.75C2101.34 2074.54 2090.24 2096.4 2084.78 2111.25C2081.26 2120.81 2082.41 2130.52 2079.39 2140.1C2075.17 2153.48 2065.86 2165.27 2058.32 2176.8C2053.54 2184.11 2044.06 2188.87 2038.16 2195.4C2021.9 2213.42 2025.51 2231.41 2024.73 2254.15C2023.84 2279.82 1998.43 2284.32 1978.86 2293.25C1967.67 2298.36 1957.21 2304.55 1946.09 2309.88C1938.04 2313.74 1929.2 2320.59 1926.93 2330.12C1921.07 2354.82 1940.8 2370.3 1963.43 2363.19C1976.38 2359.13 1989.91 2351.63 2001.34 2344.24C2007.3 2340.39 2014.4 2336.93 2017.68 2330.12C2022.17 2320.78 2024.69 2311.33 2028.46 2301.87C2031.77 2293.55 2036.92 2286.22 2040.65 2278.18C2050.02 2257.98 2069.84 2242.1 2083.87 2225.29C2102.13 2203.41 2101.64 2174.19 2116.13 2150.87C2127.75 2132.17 2144.94 2101.96 2168.3 2098.93C2176.48 2097.87 2184.02 2092.15 2190.95 2087.99C2201.5 2081.65 2212.84 2075.76 2221.55 2066.72C2227.78 2060.25 2231.24 2050.71 2234.99 2042.6C2237.97 2036.15 2239.92 2027.69 2242.12 2020.81C2244.11 2014.63 2247.42 2009.33 2249.09 2002.98C2252.94 1988.32 2257.46 1973.19 2254.4 1957.67C2253.2 1951.58 2251.17 1945.47 2250.34 1939.41C2249.81 1935.58 2249.04 1932.74 2247.18 1929.24Z" fill="#FF8B02"/>
</g>
<path id="bush" d="M249.827 3399.63C41.5678 3099.4 -69.0563 3127.87 -244.494 3399.63L-142.5 3759.5L788 3718C720.133 3476.69 665.208 3421.25 535.556 3472.16C418.074 3212.08 352.881 3210.69 249.827 3399.63Z" fill="#FF5B17"/>
<path id="land" d="M8403.5 3661C2452.62 3365 624.059 3430.25 -403 3734V4198.08H8403.5V3661Z" fill="#FFD96A"/>
<g id="birds">
<path id="bird" fill-rule="evenodd" clip-rule="evenodd" d="M2036 466.429C2081.32 467.731 2103.27 474.933 2129.6 511.733C2144.72 475.411 2162.8 465.097 2202 454C2171.64 474.686 2157.73 489.88 2140.45 517.519C2142.22 519.976 2143.27 523.042 2143.27 526.366C2143.27 534.448 2137.06 541 2129.4 541C2121.74 541 2115.53 534.448 2115.53 526.366C2115.53 523.829 2116.15 521.442 2117.22 519.361C2093.97 491.025 2074.13 480.1 2036 466.429Z" fill="#4E1501"/>
<path id="bird_2" fill-rule="evenodd" clip-rule="evenodd" d="M2246 219.429C2291.32 220.731 2313.27 227.933 2339.6 264.733C2354.72 228.411 2372.8 218.097 2412 207C2381.64 227.686 2367.73 242.88 2350.45 270.519C2352.22 272.976 2353.27 276.042 2353.27 279.366C2353.27 287.448 2347.06 294 2339.4 294C2331.74 294 2325.53 287.448 2325.53 279.366C2325.53 276.829 2326.15 274.442 2327.22 272.361C2303.97 244.025 2284.13 233.1 2246 219.429Z" fill="#4E1501"/>
<path id="bird_3" fill-rule="evenodd" clip-rule="evenodd" d="M1802 564.429C1847.32 565.731 1869.27 572.933 1895.6 609.733C1910.72 573.411 1928.8 563.097 1968 552C1937.64 572.686 1923.73 587.88 1906.45 615.519C1908.22 617.976 1909.27 621.042 1909.27 624.366C1909.27 632.448 1903.06 639 1895.4 639C1887.74 639 1881.53 632.448 1881.53 624.366C1881.53 621.829 1882.15 619.442 1883.22 617.361C1859.97 589.025 1840.13 578.1 1802 564.429Z" fill="#4E1501"/>
<path id="bird_4" fill-rule="evenodd" clip-rule="evenodd" d="M2304 553.429C2349.32 554.731 2371.27 561.933 2397.6 598.733C2412.72 562.411 2430.8 552.097 2470 541C2439.64 561.686 2425.73 576.88 2408.45 604.519C2410.22 606.976 2411.27 610.042 2411.27 613.366C2411.27 621.448 2405.06 628 2397.4 628C2389.74 628 2383.53 621.448 2383.53 613.366C2383.53 610.829 2384.15 608.442 2385.22 606.361C2361.97 578.025 2342.13 567.1 2304 553.429Z" fill="#4E1501"/>
</g>
<g id="signature">
<path id="JHA SURAJ jhasuraj.com" d="M400.11 3661.63H414.003V3730.22C414.003 3736.46 413.321 3741.82 411.956 3746.3C410.591 3750.79 408.641 3754.49 406.106 3757.42C403.571 3760.25 400.549 3762.34 397.039 3763.71C393.529 3765.07 389.629 3765.75 385.339 3765.75C380.854 3765.75 376.613 3764.97 372.616 3763.42C368.716 3761.86 365.449 3759.81 362.817 3757.27L369.544 3746.6C371.494 3748.64 373.834 3750.35 376.564 3751.72C379.294 3753.08 382.073 3753.76 384.9 3753.76C389.58 3753.76 393.285 3752.11 396.015 3748.79C398.745 3745.48 400.11 3739.77 400.11 3731.68V3661.63ZM503.168 3717.35H452.713V3764H438.819V3661.63H452.713V3705.36H503.168V3661.63H517.061V3764H503.168V3717.35ZM531.663 3760.34L571.735 3661.63H586.944L626.431 3760.34L613.707 3765.46L602.3 3736.21H554.916L543.509 3765.17L531.663 3760.34ZM559.304 3724.51H597.767L578.608 3675.37L559.304 3724.51ZM683.141 3743.67C686.651 3746.6 690.6 3748.99 694.987 3750.84C699.375 3752.69 704.493 3753.62 710.343 3753.62C717.363 3753.62 722.92 3752.15 727.015 3749.23C731.11 3746.3 733.158 3742.36 733.158 3737.38C733.158 3735.34 732.865 3733.43 732.28 3731.68C731.695 3729.92 730.525 3728.27 728.77 3726.71C727.113 3725.05 724.724 3723.44 721.604 3721.88C718.582 3720.22 714.633 3718.47 709.758 3716.62C704.493 3714.57 700.008 3712.57 696.304 3710.62C692.696 3708.57 689.771 3706.38 687.529 3704.04C685.286 3701.6 683.678 3698.97 682.703 3696.14C681.728 3693.22 681.24 3689.9 681.24 3686.2C681.24 3682.59 681.971 3679.18 683.434 3675.96C684.994 3672.74 687.236 3669.96 690.161 3667.62C693.184 3665.19 696.84 3663.28 701.13 3661.92C705.517 3660.56 710.489 3659.87 716.047 3659.87C722.092 3659.87 727.503 3660.51 732.28 3661.77C737.058 3662.94 741.786 3664.65 746.466 3666.89L741.347 3678.74C738.032 3676.79 734.133 3675.18 729.648 3673.91C725.26 3672.55 720.629 3671.86 715.754 3671.86C709.319 3671.86 704.25 3673.13 700.545 3675.67C696.84 3678.1 694.987 3681.37 694.987 3685.47C694.987 3687.42 695.231 3689.17 695.719 3690.73C696.304 3692.19 697.376 3693.66 698.936 3695.12C700.593 3696.48 702.836 3697.9 705.663 3699.36C708.588 3700.82 712.439 3702.43 717.217 3704.19C722.872 3706.33 727.649 3708.52 731.549 3710.77C735.449 3713.01 738.569 3715.4 740.909 3717.93C743.249 3720.47 744.906 3723.2 745.881 3726.12C746.954 3729.05 747.49 3732.26 747.49 3735.77C747.49 3740.55 746.564 3744.79 744.711 3748.5C742.859 3752.2 740.275 3755.37 736.96 3758C733.743 3760.54 729.843 3762.49 725.26 3763.85C720.678 3765.12 715.706 3765.75 710.343 3765.75C703.226 3765.75 696.742 3764.83 690.892 3762.98C685.043 3761.03 680.119 3758.49 676.121 3755.37L683.141 3743.67ZM828.417 3661.63H841.871V3724.51C841.871 3730.95 840.945 3736.75 839.093 3741.92C837.338 3746.99 834.754 3751.33 831.342 3754.93C828.027 3758.44 824.029 3761.12 819.349 3762.98C814.669 3764.83 809.453 3765.75 803.701 3765.75C791.806 3765.75 782.495 3762.29 775.768 3755.37C769.138 3748.35 765.823 3738.26 765.823 3725.1V3661.63H779.717V3722.9C779.717 3732.75 781.666 3740.36 785.566 3745.72C789.564 3750.98 795.609 3753.62 803.701 3753.62C811.988 3753.62 818.179 3751.03 822.274 3745.87C826.369 3740.6 828.417 3732.95 828.417 3722.9V3661.63ZM925.659 3765.75L912.936 3737.97C909.718 3731.05 905.672 3726.12 900.797 3723.2C895.922 3720.27 889.682 3718.81 882.078 3718.81H879.884V3764H865.991V3661.92C871.255 3661.43 876.179 3661.09 880.761 3660.9C885.441 3660.6 890.511 3660.46 895.971 3660.46C902.211 3660.46 907.671 3661.14 912.351 3662.5C917.031 3663.77 920.93 3665.62 924.05 3668.06C927.17 3670.5 929.51 3673.38 931.07 3676.69C932.728 3680.01 933.556 3683.66 933.556 3687.66C933.556 3694.78 931.411 3700.53 927.122 3704.92C922.929 3709.21 916.836 3712.42 908.841 3714.57C910.791 3715.45 912.594 3716.47 914.252 3717.64C915.909 3718.71 917.469 3720.08 918.932 3721.73C920.394 3723.29 921.808 3725.2 923.173 3727.44C924.635 3729.68 926.098 3732.41 927.56 3735.63L938.675 3759.61L925.659 3765.75ZM895.971 3672.16C892.656 3672.16 889.682 3672.21 887.05 3672.3C884.418 3672.4 882.029 3672.55 879.884 3672.74V3707.11H895.971C902.991 3707.11 908.694 3705.55 913.082 3702.43C917.469 3699.31 919.663 3694.83 919.663 3688.98C919.663 3684.1 917.616 3680.1 913.521 3676.98C909.426 3673.77 903.576 3672.16 895.971 3672.16ZM944.552 3760.34L984.624 3661.63H999.833L1039.32 3760.34L1026.6 3765.46L1015.19 3736.21H967.805L956.398 3765.17L944.552 3760.34ZM972.193 3724.51H1010.66L991.497 3675.37L972.193 3724.51ZM1078.07 3661.63H1091.96V3730.22C1091.96 3736.46 1091.28 3741.82 1089.92 3746.3C1088.55 3750.79 1086.6 3754.49 1084.07 3757.42C1081.53 3760.25 1078.51 3762.34 1075 3763.71C1071.49 3765.07 1067.59 3765.75 1063.3 3765.75C1058.81 3765.75 1054.57 3764.97 1050.58 3763.42C1046.68 3761.86 1043.41 3759.81 1040.78 3757.27L1047.51 3746.6C1049.46 3748.64 1051.8 3750.35 1054.53 3751.72C1057.25 3753.08 1060.03 3753.76 1062.86 3753.76C1067.54 3753.76 1071.25 3752.11 1073.98 3748.79C1076.71 3745.48 1078.07 3739.77 1078.07 3731.68V3661.63ZM487.66 3832.92H497.02V3892.93C497.02 3896.12 496.57 3898.86 495.668 3901.14C494.767 3903.43 493.554 3905.3 492.028 3906.76C490.503 3908.29 488.7 3909.39 486.62 3910.09C484.54 3910.78 482.322 3911.13 479.964 3911.13C475.735 3911.13 472.199 3910.33 469.356 3908.74L471.644 3900.94C472.546 3901.49 473.655 3901.98 474.972 3902.39C476.22 3902.81 477.503 3903.02 478.82 3903.02C484.714 3903.02 487.66 3899.34 487.66 3891.99V3832.92ZM492.34 3823.66C490.538 3823.66 488.978 3823.04 487.66 3821.79C486.412 3820.47 485.788 3818.91 485.788 3817.11C485.788 3815.1 486.378 3813.51 487.556 3812.33C488.735 3811.15 490.33 3810.56 492.34 3810.56C494.143 3810.56 495.668 3811.22 496.916 3812.54C498.234 3813.78 498.892 3815.31 498.892 3817.11C498.892 3819.12 498.303 3820.72 497.124 3821.9C495.946 3823.07 494.351 3823.66 492.34 3823.66ZM522.79 3841.55C524.732 3838.71 527.158 3836.35 530.07 3834.48C533.052 3832.61 536.588 3831.67 540.678 3831.67C546.78 3831.67 551.321 3833.51 554.302 3837.18C557.353 3840.86 558.878 3845.71 558.878 3851.74V3887H549.518V3852.78C549.518 3848.83 548.617 3845.71 546.814 3843.42C545.081 3841.07 542.55 3839.89 539.222 3839.89C537.628 3839.89 536.033 3840.2 534.438 3840.82C532.913 3841.38 531.457 3842.18 530.07 3843.22C528.684 3844.26 527.366 3845.47 526.118 3846.86C524.87 3848.24 523.761 3849.7 522.79 3851.22V3887H513.43V3810.04H522.79V3841.55ZM571.337 3860.27C571.337 3856.25 571.961 3852.51 573.209 3849.04C574.457 3845.5 576.191 3842.45 578.409 3839.89C580.697 3837.32 583.401 3835.31 586.521 3833.86C589.711 3832.4 593.177 3831.67 596.921 3831.67C600.041 3831.67 602.849 3832.23 605.345 3833.34C607.911 3834.38 610.129 3835.69 612.001 3837.29V3832.92H620.529V3873.9C620.529 3876.53 621.153 3878.26 622.401 3879.1C623.719 3879.86 625.14 3880.24 626.665 3880.24L624.689 3887.52C618.033 3887.52 614.012 3884.82 612.625 3879.41C611.793 3880.52 610.823 3881.63 609.713 3882.74C608.673 3883.78 607.46 3884.71 606.073 3885.54C604.687 3886.38 603.127 3887.03 601.393 3887.52C599.66 3888.01 597.753 3888.25 595.673 3888.25C592.276 3888.25 589.087 3887.59 586.105 3886.27C583.193 3884.95 580.628 3883.08 578.409 3880.66C576.26 3878.23 574.527 3875.32 573.209 3871.92C571.961 3868.45 571.337 3864.57 571.337 3860.27ZM597.753 3879.93C600.388 3879.93 602.884 3879.3 605.241 3878.06C607.599 3876.81 609.575 3875.18 611.169 3873.17V3844.15C609.297 3842.83 607.217 3841.79 604.929 3841.03C602.711 3840.2 600.353 3839.78 597.857 3839.78C595.361 3839.78 593.073 3840.27 590.993 3841.24C588.913 3842.21 587.111 3843.6 585.585 3845.4C584.129 3847.13 582.985 3849.25 582.153 3851.74C581.321 3854.24 580.905 3856.98 580.905 3859.96C580.905 3862.87 581.321 3865.58 582.153 3868.07C582.985 3870.5 584.164 3872.61 585.689 3874.42C587.215 3876.15 588.983 3877.5 590.993 3878.47C593.073 3879.44 595.327 3879.93 597.753 3879.93ZM638.437 3874.83C640.239 3876.43 642.493 3877.71 645.197 3878.68C647.97 3879.65 650.917 3880.14 654.037 3880.14C657.919 3880.14 660.831 3879.51 662.773 3878.26C664.783 3876.95 665.789 3875.28 665.789 3873.27C665.789 3872.23 665.581 3871.26 665.165 3870.36C664.818 3869.46 664.125 3868.59 663.085 3867.76C662.114 3866.93 660.762 3866.13 659.029 3865.37C657.295 3864.54 655.042 3863.63 652.269 3862.66C647.138 3860.93 643.325 3858.89 640.829 3856.53C638.333 3854.1 637.085 3850.77 637.085 3846.54C637.085 3844.46 637.535 3842.52 638.437 3840.72C639.407 3838.92 640.759 3837.36 642.493 3836.04C644.295 3834.65 646.445 3833.58 648.941 3832.82C651.506 3832.05 654.418 3831.67 657.677 3831.67C661.213 3831.67 664.298 3832.05 666.933 3832.82C669.637 3833.51 672.063 3834.41 674.213 3835.52L671.613 3843.22C669.741 3842.11 667.591 3841.21 665.165 3840.51C662.807 3839.82 660.173 3839.47 657.261 3839.47C653.655 3839.47 650.917 3840.2 649.045 3841.66C647.173 3843.11 646.237 3844.71 646.237 3846.44C646.237 3847.27 646.375 3848.03 646.653 3848.73C646.999 3849.42 647.589 3850.08 648.421 3850.7C649.253 3851.33 650.362 3851.95 651.749 3852.58C653.135 3853.2 654.869 3853.86 656.949 3854.55C660.346 3855.73 663.223 3856.94 665.581 3858.19C667.938 3859.37 669.845 3860.69 671.301 3862.14C672.757 3863.6 673.797 3865.19 674.421 3866.93C675.045 3868.59 675.357 3870.46 675.357 3872.54C675.357 3874.97 674.837 3877.15 673.797 3879.1C672.757 3881.04 671.301 3882.7 669.429 3884.09C667.557 3885.41 665.269 3886.41 662.565 3887.1C659.93 3887.87 656.983 3888.25 653.725 3888.25C649.565 3888.25 645.855 3887.73 642.597 3886.69C639.338 3885.65 636.634 3884.3 634.485 3882.63L638.437 3874.83ZM736.173 3887.52C732.845 3887.52 730.21 3886.86 728.269 3885.54C726.328 3884.23 724.976 3882.32 724.213 3879.82C721.786 3882.32 718.978 3884.37 715.789 3885.96C712.669 3887.49 709.237 3888.25 705.493 3888.25C703.136 3888.25 700.848 3887.87 698.629 3887.1C696.48 3886.41 694.538 3885.27 692.805 3883.67C691.141 3882.08 689.789 3880 688.749 3877.43C687.778 3874.87 687.293 3871.75 687.293 3868.07V3832.92H696.653V3866.82C696.653 3871.05 697.52 3874.31 699.253 3876.6C701.056 3878.82 703.725 3879.93 707.261 3879.93C710.173 3879.93 712.946 3879.37 715.581 3878.26C718.216 3877.09 720.573 3875.53 722.653 3873.58V3832.92H732.013V3872.96C732.013 3874.49 732.186 3875.73 732.533 3876.7C732.88 3877.61 733.331 3878.33 733.885 3878.89C734.44 3879.37 735.099 3879.72 735.861 3879.93C736.624 3880.14 737.387 3880.24 738.149 3880.24L736.173 3887.52ZM779.907 3841.97C778.589 3841.41 777.029 3841.14 775.227 3841.14C773.285 3841.14 771.379 3841.55 769.507 3842.38C767.704 3843.22 766.075 3844.46 764.619 3846.13C763.232 3847.79 762.088 3849.94 761.187 3852.58C760.355 3855.14 759.939 3858.19 759.939 3861.73V3887H750.579V3832.92H759.627V3844.67C760.251 3843.01 761.083 3841.38 762.123 3839.78C763.163 3838.19 764.376 3836.8 765.763 3835.62C767.219 3834.45 768.883 3833.51 770.755 3832.82C772.627 3832.05 774.707 3831.67 776.995 3831.67C778.035 3831.67 779.04 3831.74 780.011 3831.88C781.051 3831.95 781.952 3832.09 782.715 3832.3L779.907 3841.97ZM785.329 3860.27C785.329 3856.25 785.953 3852.51 787.201 3849.04C788.449 3845.5 790.183 3842.45 792.401 3839.89C794.689 3837.32 797.393 3835.31 800.513 3833.86C803.703 3832.4 807.169 3831.67 810.913 3831.67C814.033 3831.67 816.841 3832.23 819.337 3833.34C821.903 3834.38 824.121 3835.69 825.993 3837.29V3832.92H834.521V3873.9C834.521 3876.53 835.145 3878.26 836.393 3879.1C837.711 3879.86 839.132 3880.24 840.657 3880.24L838.681 3887.52C832.025 3887.52 828.004 3884.82 826.617 3879.41C825.785 3880.52 824.815 3881.63 823.705 3882.74C822.665 3883.78 821.452 3884.71 820.065 3885.54C818.679 3886.38 817.119 3887.03 815.385 3887.52C813.652 3888.01 811.745 3888.25 809.665 3888.25C806.268 3888.25 803.079 3887.59 800.097 3886.27C797.185 3884.95 794.62 3883.08 792.401 3880.66C790.252 3878.23 788.519 3875.32 787.201 3871.92C785.953 3868.45 785.329 3864.57 785.329 3860.27ZM811.745 3879.93C814.38 3879.93 816.876 3879.3 819.233 3878.06C821.591 3876.81 823.567 3875.18 825.161 3873.17V3844.15C823.289 3842.83 821.209 3841.79 818.921 3841.03C816.703 3840.2 814.345 3839.78 811.849 3839.78C809.353 3839.78 807.065 3840.27 804.985 3841.24C802.905 3842.21 801.103 3843.6 799.577 3845.4C798.121 3847.13 796.977 3849.25 796.145 3851.74C795.313 3854.24 794.897 3856.98 794.897 3859.96C794.897 3862.87 795.313 3865.58 796.145 3868.07C796.977 3870.5 798.156 3872.61 799.681 3874.42C801.207 3876.15 802.975 3877.5 804.985 3878.47C807.065 3879.44 809.319 3879.93 811.745 3879.93ZM852.27 3832.92H861.63V3892.93C861.63 3896.12 861.179 3898.86 860.278 3901.14C859.376 3903.43 858.163 3905.3 856.638 3906.76C855.112 3908.29 853.31 3909.39 851.23 3910.09C849.15 3910.78 846.931 3911.13 844.574 3911.13C840.344 3911.13 836.808 3910.33 833.966 3908.74L836.254 3900.94C837.155 3901.49 838.264 3901.98 839.582 3902.39C840.83 3902.81 842.112 3903.02 843.43 3903.02C849.323 3903.02 852.27 3899.34 852.27 3891.99V3832.92ZM856.95 3823.66C855.147 3823.66 853.587 3823.04 852.27 3821.79C851.022 3820.47 850.398 3818.91 850.398 3817.11C850.398 3815.1 850.987 3813.51 852.166 3812.33C853.344 3811.15 854.939 3810.56 856.95 3810.56C858.752 3810.56 860.278 3811.22 861.526 3812.54C862.843 3813.78 863.502 3815.31 863.502 3817.11C863.502 3819.12 862.912 3820.72 861.734 3821.9C860.555 3823.07 858.96 3823.66 856.95 3823.66ZM878.352 3881.28C878.352 3879.13 878.941 3877.43 880.12 3876.18C881.368 3874.94 883.101 3874.31 885.32 3874.31C887.122 3874.31 888.717 3875.01 890.104 3876.39C891.56 3877.78 892.288 3879.41 892.288 3881.28C892.288 3883.36 891.629 3885.06 890.312 3886.38C888.994 3887.62 887.33 3888.25 885.32 3888.25C883.448 3888.25 881.818 3887.55 880.432 3886.17C879.045 3884.78 878.352 3883.15 878.352 3881.28ZM941.107 3842.8C939.096 3841.83 937.224 3841.14 935.491 3840.72C933.757 3840.23 931.816 3839.99 929.667 3839.99C927.24 3839.99 924.952 3840.44 922.803 3841.34C920.723 3842.25 918.92 3843.56 917.395 3845.3C915.869 3846.96 914.656 3849.01 913.755 3851.43C912.923 3853.86 912.507 3856.63 912.507 3859.75C912.507 3862.59 912.888 3865.23 913.651 3867.66C914.483 3870.08 915.627 3872.23 917.083 3874.1C918.539 3875.91 920.272 3877.33 922.283 3878.37C924.293 3879.41 926.547 3879.93 929.043 3879.93C931.677 3879.93 933.931 3879.65 935.803 3879.1C937.675 3878.54 939.685 3877.67 941.835 3876.5L944.747 3884.4C942.528 3885.58 940.101 3886.51 937.467 3887.21C934.832 3887.9 931.816 3888.25 928.419 3888.25C924.536 3888.25 921.035 3887.55 917.915 3886.17C914.795 3884.78 912.125 3882.84 909.907 3880.34C907.688 3877.85 905.955 3874.87 904.707 3871.4C903.528 3867.93 902.939 3864.12 902.939 3859.96C902.939 3856.08 903.528 3852.44 904.707 3849.04C905.955 3845.57 907.723 3842.56 910.011 3839.99C912.299 3837.43 915.037 3835.42 918.227 3833.96C921.485 3832.43 925.125 3831.67 929.147 3831.67C932.267 3831.67 934.971 3831.95 937.259 3832.5C939.547 3833.06 941.765 3833.86 943.915 3834.9L941.107 3842.8ZM994.762 3859.96C994.762 3857.26 994.311 3854.69 993.41 3852.26C992.578 3849.84 991.365 3847.72 989.77 3845.92C988.245 3844.12 986.407 3842.7 984.258 3841.66C982.178 3840.55 979.89 3839.99 977.394 3839.99C971.917 3839.99 967.653 3841.79 964.602 3845.4C961.551 3849.01 960.026 3853.79 960.026 3859.75C960.026 3862.46 960.442 3865.06 961.274 3867.55C962.175 3869.98 963.389 3872.13 964.914 3874C966.509 3875.8 968.346 3877.26 970.426 3878.37C972.575 3879.41 974.898 3879.93 977.394 3879.93C980.098 3879.93 982.525 3879.44 984.674 3878.47C986.823 3877.5 988.626 3876.15 990.082 3874.42C991.607 3872.61 992.751 3870.5 993.514 3868.07C994.346 3865.65 994.762 3862.94 994.762 3859.96ZM950.458 3859.96C950.458 3855.59 951.151 3851.67 952.538 3848.21C953.925 3844.67 955.797 3841.69 958.154 3839.26C960.581 3836.84 963.423 3834.97 966.682 3833.65C970.01 3832.33 973.581 3831.67 977.394 3831.67C981.138 3831.67 984.639 3832.33 987.898 3833.65C991.226 3834.97 994.103 3836.84 996.53 3839.26C998.957 3841.69 1000.86 3844.64 1002.25 3848.1C1003.64 3851.57 1004.33 3855.45 1004.33 3859.75C1004.33 3864.05 1003.64 3867.97 1002.25 3871.5C1000.93 3874.97 999.061 3877.95 996.634 3880.45C994.207 3882.94 991.33 3884.89 988.002 3886.27C984.743 3887.59 981.207 3888.25 977.394 3888.25C973.511 3888.25 969.906 3887.55 966.578 3886.17C963.319 3884.78 960.477 3882.84 958.05 3880.34C955.693 3877.85 953.821 3874.87 952.434 3871.4C951.117 3867.93 950.458 3864.12 950.458 3859.96ZM1025.82 3841.97C1027.76 3839.06 1030.19 3836.63 1033.1 3834.69C1036.08 3832.68 1039.52 3831.67 1043.4 3831.67C1047.7 3831.67 1051.2 3832.71 1053.9 3834.79C1056.61 3836.8 1058.55 3839.58 1059.73 3843.11C1061.88 3839.92 1064.41 3837.22 1067.32 3835C1070.3 3832.78 1073.97 3831.67 1078.34 3831.67C1081.25 3831.67 1083.78 3832.16 1085.93 3833.13C1088.15 3834.1 1089.99 3835.49 1091.45 3837.29C1092.9 3839.02 1093.98 3841.14 1094.67 3843.63C1095.43 3846.06 1095.81 3848.76 1095.81 3851.74V3887H1086.45V3852.47C1086.45 3848.73 1085.59 3845.71 1083.85 3843.42C1082.12 3841.07 1079.73 3839.89 1076.68 3839.89C1075.08 3839.89 1073.56 3840.2 1072.1 3840.82C1070.65 3841.45 1069.26 3842.31 1067.94 3843.42C1066.62 3844.46 1065.38 3845.71 1064.2 3847.17C1063.02 3848.55 1061.94 3850.01 1060.97 3851.54V3887H1051.61V3852.47C1051.61 3848.73 1050.75 3845.71 1049.01 3843.42C1047.28 3841.07 1044.89 3839.89 1041.84 3839.89C1040.31 3839.89 1038.82 3840.2 1037.37 3840.82C1035.91 3841.38 1034.49 3842.18 1033.1 3843.22C1031.78 3844.26 1030.54 3845.47 1029.36 3846.86C1028.18 3848.24 1027.1 3849.7 1026.13 3851.22V3887H1016.77V3832.92H1025.82V3841.97Z" fill="black" fill-opacity="0.5"/>
<g id="link">
<path id="Vector" d="M460.078 3813.23C450.436 3803.59 434.746 3803.59 425.102 3813.23L425.104 3813.23L409.846 3828.49L416.889 3835.53L432.149 3820.27L432.148 3820.27C437.91 3814.51 447.277 3814.52 453.035 3820.28C458.794 3826.03 458.793 3835.41 453.035 3841.17L430.137 3864.06C427.348 3866.85 423.638 3868.39 419.693 3868.39C415.748 3868.39 412.038 3866.85 409.248 3864.06L402.206 3871.11C406.877 3875.78 413.088 3878.35 419.694 3878.35C426.3 3878.35 432.511 3875.78 437.18 3871.11L460.079 3848.21C469.719 3838.56 469.719 3822.87 460.078 3813.23Z" fill="black" fill-opacity="0.5"/>
<path id="Vector_2" d="M394.473 3899.73C388.713 3905.49 379.342 3905.49 373.584 3899.73C367.825 3893.97 367.825 3884.59 373.583 3878.83L396.479 3855.94C402.239 3850.18 411.61 3850.18 417.369 3855.94L424.413 3848.9C414.769 3839.25 399.079 3839.25 389.436 3848.9L366.539 3871.79C356.899 3881.43 356.899 3897.13 366.54 3906.77C371.363 3911.59 377.696 3914 384.03 3914C390.362 3914 396.695 3911.59 401.515 3906.77L401.516 3906.77L416.777 3891.51L409.734 3884.46L394.473 3899.73Z" fill="black" fill-opacity="0.5"/>
</g>
</g>
</g>
</g>
<defs>
<filter id="filter0_d" x="4068" y="132" width="2900" height="2900" filterUnits="userSpaceOnUse" color-interpolation-filters="sRGB">
<feFlood flood-opacity="0" result="BackgroundImageFix"/>
<feColorMatrix in="SourceAlpha" type="matrix" values="0 0 0 0 0 0 0 0 0 0 0 0 0 0 0 0 0 0 127 0"/>
<feOffset/>
<feGaussianBlur stdDeviation="125"/>
<feColorMatrix type="matrix" values="0 0 0 0 1 0 0 0 0 0.997146 0 0 0 0 0.811667 0 0 0 1 0"/>
<feBlend mode="normal" in2="BackgroundImageFix" result="effect1_dropShadow"/>
<feBlend mode="normal" in="SourceGraphic" in2="effect1_dropShadow" result="shape"/>
</filter>
<filter id="filter1_d" x="7621.09" y="2332.75" width="100.507" height="255.952" filterUnits="userSpaceOnUse" color-interpolation-filters="sRGB">
<feFlood flood-opacity="0" result="BackgroundImageFix"/>
<feColorMatrix in="SourceAlpha" type="matrix" values="0 0 0 0 0 0 0 0 0 0 0 0 0 0 0 0 0 0 127 0"/>
<feOffset dy="4"/>
<feGaussianBlur stdDeviation="2"/>
<feColorMatrix type="matrix" values="0 0 0 0 0 0 0 0 0 0 0 0 0 0 0 0 0 0 0.25 0"/>
<feBlend mode="normal" in2="BackgroundImageFix" result="effect1_dropShadow"/>
<feBlend mode="normal" in="SourceGraphic" in2="effect1_dropShadow" result="shape"/>
</filter>
<filter id="filter2_d" x="983.026" y="2632.02" width="149.675" height="346.872" filterUnits="userSpaceOnUse" color-interpolation-filters="sRGB">
<feFlood flood-opacity="0" result="BackgroundImageFix"/>
<feColorMatrix in="SourceAlpha" type="matrix" values="0 0 0 0 0 0 0 0 0 0 0 0 0 0 0 0 0 0 127 0"/>
<feOffset dy="4"/>
<feGaussianBlur stdDeviation="2"/>
<feColorMatrix type="matrix" values="0 0 0 0 0 0 0 0 0 0 0 0 0 0 0 0 0 0 0.25 0"/>
<feBlend mode="normal" in2="BackgroundImageFix" result="effect1_dropShadow"/>
<feBlend mode="normal" in="SourceGraphic" in2="effect1_dropShadow" result="shape"/>
</filter>
<linearGradient id="paint0_linear" x1="5.93652e-07" y1="871.5" x2="8000" y2="830" gradientUnits="userSpaceOnUse">
<stop stop-color="#FFEECC"/>
<stop offset="0.694894" stop-color="#F9F09F" stop-opacity="0.6"/>
<stop offset="1" stop-color="#FFC6B3"/>
</linearGradient>
<linearGradient id="paint1_linear" x1="7572.78" y1="597" x2="7565.78" y2="87.4998" gradientUnits="userSpaceOnUse">
<stop offset="0.115625" stop-color="#FCD4B7"/>
<stop offset="1" stop-color="#FFA966" stop-opacity="0.54"/>
</linearGradient>
<radialGradient id="paint2_radial" cx="0" cy="0" r="1" gradientUnits="userSpaceOnUse" gradientTransform="translate(5518 1582) rotate(90) scale(1200)">
<stop stop-color="#FFFC53"/>
<stop offset="0.886458" stop-color="#FFFD90"/>
<stop offset="1" stop-color="#FFFEB6"/>
</radialGradient>
<linearGradient id="paint3_linear" x1="3891.26" y1="-587.08" x2="3890.76" y2="2671.39" gradientUnits="userSpaceOnUse">
<stop stop-color="white"/>
<stop offset="1" stop-color="#FEFFCF"/>
</linearGradient>
<linearGradient id="paint4_linear" x1="-341" y1="2671.15" x2="8123" y2="2578.15" gradientUnits="userSpaceOnUse">
<stop offset="0.0785341" stop-color="#FFE8E8" stop-opacity="0.04"/>
<stop offset="1" stop-color="#FF9797" stop-opacity="0.32"/>
</linearGradient>
<linearGradient id="paint5_linear" x1="1712" y1="1890" x2="1712" y2="3320" gradientUnits="userSpaceOnUse">
<stop stop-color="#FFDDAA"/>
<stop offset="0.417708" stop-color="#FFDA93"/>
<stop offset="1" stop-color="#FFA573"/>
</linearGradient>
<linearGradient id="paint6_linear" x1="5499.5" y1="2067.21" x2="5499.5" y2="3488.46" gradientUnits="userSpaceOnUse">
<stop stop-color="#FFDDAA"/>
<stop offset="0.448958" stop-color="#FFDA93"/>
<stop offset="1" stop-color="#FFA573"/>
</linearGradient>
<linearGradient id="paint7_linear" x1="3168.5" y1="2641" x2="8013.5" y2="2586.5" gradientUnits="userSpaceOnUse">
<stop stop-color="#AE7711" stop-opacity="0.88"/>
<stop offset="0.2482" stop-color="#E0B564" stop-opacity="0"/>
<stop offset="1" stop-color="white" stop-opacity="0"/>
</linearGradient>
<linearGradient id="paint8_linear" x1="2704" y1="2671" x2="2704" y2="3415" gradientUnits="userSpaceOnUse">
<stop stop-color="#FFB464"/>
<stop offset="1" stop-color="#FF7850"/>
</linearGradient>
<linearGradient id="paint9_linear" x1="6920" y1="2443.37" x2="6920" y2="3415" gradientUnits="userSpaceOnUse">
<stop stop-color="#FFB464"/>
<stop offset="1" stop-color="#FF7850"/>
</linearGradient>
<linearGradient id="paint10_linear" x1="4480" y1="3360.5" x2="8041" y2="2850.5" gradientUnits="userSpaceOnUse">
<stop stop-color="#FF4D00"/>
<stop offset="0.323958" stop-color="#FF8653" stop-opacity="0"/>
<stop offset="1" stop-color="white" stop-opacity="0"/>
</linearGradient>
<clipPath id="clip0">
<rect width="8000" height="4000" fill="white"/>
</clipPath>
</defs>
</svg>
